<?xml version="1.0" encoding="UTF-8" standalone="no"?>
<!DOCTYPE svg PUBLIC "-//W3C//DTD SVG 1.1//EN"
 "http://www.w3.org/Graphics/SVG/1.1/DTD/svg11.dtd">
<!-- Generated by graphviz version 2.40.1 (20161225.0304)
 -->
<!-- Title: BOW_Model_4_1 Pages: 1 -->
<svg width="2097pt" height="233pt"
 viewBox="0.00 0.00 2097.20 233.00" xmlns="http://www.w3.org/2000/svg" xmlns:xlink="http://www.w3.org/1999/xlink">
<g id="graph0" class="graph" transform="scale(1 1) rotate(0) translate(4 229)">
<title>BOW_Model_4_1</title>
<polygon fill="#ffffff" stroke="transparent" points="-4,4 -4,-229 2093.2038,-229 2093.2038,4 -4,4"/>
<!-- Gather (op#0) -->
<g id="node1" class="node">
<title>Gather (op#0)</title>
<polygon fill="#0f9d58" stroke="#0f9d58" points="242.1518,-63 147.1518,-63 147.1518,-27 242.1518,-27 242.1518,-63"/>
<text text-anchor="middle" x="194.6518" y="-41.3" font-family="Times,serif" font-size="14.00" fill="#ffffff">Gather (op#0)</text>
</g>
<!-- word_embedding0 -->
<g id="node4" class="node">
<title>word_embedding0</title>
<polygon fill="none" stroke="#000000" points="438.7467,-37.5442 438.7467,-52.4558 391.6514,-63 325.0485,-63 277.9532,-52.4558 277.9532,-37.5442 325.0485,-27 391.6514,-27 438.7467,-37.5442"/>
<text text-anchor="middle" x="358.35" y="-41.3" font-family="Times,serif" font-size="14.00" fill="#000000">word_embedding</text>
</g>
<!-- Gather (op#0)&#45;&gt;word_embedding0 -->
<g id="edge3" class="edge">
<title>Gather (op#0)&#45;&gt;word_embedding0</title>
<path fill="none" stroke="#000000" d="M242.4402,-45C250.444,-45 258.9767,-45 267.6434,-45"/>
<polygon fill="#000000" stroke="#000000" points="267.8553,-48.5001 277.8553,-45 267.8553,-41.5001 267.8553,-48.5001"/>
</g>
<!-- embedding0 -->
<g id="node2" class="node">
<title>embedding0</title>
<polygon fill="none" stroke="#000000" points="111.2278,-64.5442 111.2278,-79.4558 78.6277,-90 32.5241,-90 -.076,-79.4558 -.076,-64.5442 32.5241,-54 78.6277,-54 111.2278,-64.5442"/>
<text text-anchor="middle" x="55.5759" y="-68.3" font-family="Times,serif" font-size="14.00" fill="#000000">embedding</text>
</g>
<!-- embedding0&#45;&gt;Gather (op#0) -->
<g id="edge1" class="edge">
<title>embedding0&#45;&gt;Gather (op#0)</title>
<path fill="none" stroke="#000000" d="M105.0005,-62.4048C115.2954,-60.4061 126.2338,-58.2826 136.8015,-56.231"/>
<polygon fill="#000000" stroke="#000000" points="137.6371,-59.6342 146.7867,-54.2925 136.303,-52.7625 137.6371,-59.6342"/>
</g>
<!-- words0 -->
<g id="node3" class="node">
<title>words0</title>
<polygon fill="none" stroke="#000000" points="91.3326,-10.5442 91.3326,-25.4558 70.3868,-36 40.765,-36 19.8193,-25.4558 19.8193,-10.5442 40.765,0 70.3868,0 91.3326,-10.5442"/>
<text text-anchor="middle" x="55.5759" y="-14.3" font-family="Times,serif" font-size="14.00" fill="#000000">words</text>
</g>
<!-- words0&#45;&gt;Gather (op#0) -->
<g id="edge2" class="edge">
<title>words0&#45;&gt;Gather (op#0)</title>
<path fill="none" stroke="#000000" d="M91.3914,-24.9532C105.2558,-27.6448 121.4801,-30.7945 136.9067,-33.7894"/>
<polygon fill="#000000" stroke="#000000" points="136.4124,-37.2588 146.8962,-35.7288 137.7465,-30.3871 136.4124,-37.2588"/>
</g>
<!-- Reshape (op#1) -->
<g id="node5" class="node">
<title>Reshape (op#1)</title>
<polygon fill="#0f9d58" stroke="#0f9d58" points="579.5481,-63 474.5481,-63 474.5481,-27 579.5481,-27 579.5481,-63"/>
<text text-anchor="middle" x="527.0481" y="-41.3" font-family="Times,serif" font-size="14.00" fill="#ffffff">Reshape (op#1)</text>
</g>
<!-- word_embedding0&#45;&gt;Reshape (op#1) -->
<g id="edge4" class="edge">
<title>word_embedding0&#45;&gt;Reshape (op#1)</title>
<path fill="none" stroke="#000000" d="M438.7465,-45C447.2195,-45 455.7459,-45 463.9826,-45"/>
<polygon fill="#000000" stroke="#000000" points="464.235,-48.5001 474.2349,-45 464.2349,-41.5001 464.235,-48.5001"/>
</g>
<!-- word_embed_reshaped0 -->
<g id="node6" class="node">
<title>word_embed_reshaped0</title>
<polygon fill="none" stroke="#000000" points="821.1783,-64.5442 821.1783,-79.4558 760.889,-90 675.6271,-90 615.3378,-79.4558 615.3378,-64.5442 675.6271,-54 760.889,-54 821.1783,-64.5442"/>
<text text-anchor="middle" x="718.258" y="-68.3" font-family="Times,serif" font-size="14.00" fill="#000000">word_embed_reshaped</text>
</g>
<!-- Reshape (op#1)&#45;&gt;word_embed_reshaped0 -->
<g id="edge5" class="edge">
<title>Reshape (op#1)&#45;&gt;word_embed_reshaped0</title>
<path fill="none" stroke="#000000" d="M579.55,-52.4136C594.382,-54.508 610.9646,-56.8495 627.362,-59.1649"/>
<polygon fill="#000000" stroke="#000000" points="627.1393,-62.6681 637.5305,-60.6008 628.1181,-55.7369 627.1393,-62.6681"/>
</g>
<!-- old_shape0 -->
<g id="node7" class="node">
<title>old_shape0</title>
<polygon fill="none" stroke="#000000" points="769.4683,-10.5442 769.4683,-25.4558 739.47,-36 697.046,-36 667.0477,-25.4558 667.0477,-10.5442 697.046,0 739.47,0 769.4683,-10.5442"/>
<text text-anchor="middle" x="718.258" y="-14.3" font-family="Times,serif" font-size="14.00" fill="#000000">old_shape</text>
</g>
<!-- Reshape (op#1)&#45;&gt;old_shape0 -->
<g id="edge6" class="edge">
<title>Reshape (op#1)&#45;&gt;old_shape0</title>
<path fill="none" stroke="#000000" d="M579.55,-37.5864C603.4538,-34.211 631.9044,-30.1937 656.799,-26.6784"/>
<polygon fill="#000000" stroke="#000000" points="657.4526,-30.1209 666.865,-25.257 656.4738,-23.1897 657.4526,-30.1209"/>
</g>
<!-- ReduceSum (op#2) -->
<g id="node8" class="node">
<title>ReduceSum (op#2)</title>
<polygon fill="#0f9d58" stroke="#0f9d58" points="981.9679,-90 856.9679,-90 856.9679,-54 981.9679,-54 981.9679,-90"/>
<text text-anchor="middle" x="919.4679" y="-68.3" font-family="Times,serif" font-size="14.00" fill="#ffffff">ReduceSum (op#2)</text>
</g>
<!-- word_embed_reshaped0&#45;&gt;ReduceSum (op#2) -->
<g id="edge7" class="edge">
<title>word_embed_reshaped0&#45;&gt;ReduceSum (op#2)</title>
<path fill="none" stroke="#000000" d="M821.2207,-72C829.8819,-72 838.5197,-72 846.8773,-72"/>
<polygon fill="#000000" stroke="#000000" points="846.9154,-75.5001 856.9154,-72 846.9154,-68.5001 846.9154,-75.5001"/>
</g>
<!-- embedding_sum0 -->
<g id="node9" class="node">
<title>embedding_sum0</title>
<polygon fill="none" stroke="#000000" points="1171.5104,-64.5442 1171.5104,-79.4558 1126.4858,-90 1062.8114,-90 1017.7868,-79.4558 1017.7868,-64.5442 1062.8114,-54 1126.4858,-54 1171.5104,-64.5442"/>
<text text-anchor="middle" x="1094.6486" y="-68.3" font-family="Times,serif" font-size="14.00" fill="#000000">embedding_sum</text>
</g>
<!-- ReduceSum (op#2)&#45;&gt;embedding_sum0 -->
<g id="edge8" class="edge">
<title>ReduceSum (op#2)&#45;&gt;embedding_sum0</title>
<path fill="none" stroke="#000000" d="M982.2174,-72C990.5439,-72 999.197,-72 1007.8399,-72"/>
<polygon fill="#000000" stroke="#000000" points="1007.9612,-75.5001 1017.9611,-72 1007.9611,-68.5001 1007.9612,-75.5001"/>
</g>
<!-- Reshape (op#3) -->
<g id="node10" class="node">
<title>Reshape (op#3)</title>
<polygon fill="#0f9d58" stroke="#0f9d58" points="1312.3293,-90 1207.3293,-90 1207.3293,-54 1312.3293,-54 1312.3293,-90"/>
<text text-anchor="middle" x="1259.8293" y="-68.3" font-family="Times,serif" font-size="14.00" fill="#ffffff">Reshape (op#3)</text>
</g>
<!-- embedding_sum0&#45;&gt;Reshape (op#3) -->
<g id="edge9" class="edge">
<title>embedding_sum0&#45;&gt;Reshape (op#3)</title>
<path fill="none" stroke="#000000" d="M1171.4361,-72C1180.0611,-72 1188.771,-72 1197.187,-72"/>
<polygon fill="#000000" stroke="#000000" points="1197.2814,-75.5001 1207.2814,-72 1197.2813,-68.5001 1197.2814,-75.5001"/>
</g>
<!-- embedding_sum_reshape0 -->
<g id="node11" class="node">
<title>embedding_sum_reshape0</title>
<polygon fill="none" stroke="#000000" points="1571.8954,-91.5442 1571.8954,-106.4558 1506.4567,-117 1413.9125,-117 1348.4738,-106.4558 1348.4738,-91.5442 1413.9125,-81 1506.4567,-81 1571.8954,-91.5442"/>
<text text-anchor="middle" x="1460.1846" y="-95.3" font-family="Times,serif" font-size="14.00" fill="#000000">embedding_sum_reshape</text>
</g>
<!-- Reshape (op#3)&#45;&gt;embedding_sum_reshape0 -->
<g id="edge10" class="edge">
<title>Reshape (op#3)&#45;&gt;embedding_sum_reshape0</title>
<path fill="none" stroke="#000000" d="M1312.4703,-79.0939C1328.1712,-81.2098 1345.9003,-83.599 1363.4863,-85.9689"/>
<polygon fill="#000000" stroke="#000000" points="1363.4298,-89.4928 1373.8077,-87.3598 1364.3647,-82.5555 1363.4298,-89.4928"/>
</g>
<!-- sum_old_reshape0 -->
<g id="node12" class="node">
<title>sum_old_reshape0</title>
<polygon fill="none" stroke="#000000" points="1540.5814,-37.5442 1540.5814,-52.4558 1493.486,-63 1426.8832,-63 1379.7878,-52.4558 1379.7878,-37.5442 1426.8832,-27 1493.486,-27 1540.5814,-37.5442"/>
<text text-anchor="middle" x="1460.1846" y="-41.3" font-family="Times,serif" font-size="14.00" fill="#000000">sum_old_reshape</text>
</g>
<!-- Reshape (op#3)&#45;&gt;sum_old_reshape0 -->
<g id="edge11" class="edge">
<title>Reshape (op#3)&#45;&gt;sum_old_reshape0</title>
<path fill="none" stroke="#000000" d="M1312.4703,-64.9061C1332.7799,-62.1691 1356.483,-58.9749 1378.8802,-55.9566"/>
<polygon fill="#000000" stroke="#000000" points="1379.6191,-59.3888 1389.0621,-54.5845 1378.6842,-52.4515 1379.6191,-59.3888"/>
</g>
<!-- FC (op#4) -->
<g id="node13" class="node">
<title>FC (op#4)</title>
<polygon fill="#0f9d58" stroke="#0f9d58" points="1682.0399,-171 1608.0399,-171 1608.0399,-135 1682.0399,-135 1682.0399,-171"/>
<text text-anchor="middle" x="1645.0399" y="-149.3" font-family="Times,serif" font-size="14.00" fill="#ffffff">FC (op#4)</text>
</g>
<!-- embedding_sum_reshape0&#45;&gt;FC (op#4) -->
<g id="edge12" class="edge">
<title>embedding_sum_reshape0&#45;&gt;FC (op#4)</title>
<path fill="none" stroke="#000000" d="M1527.0723,-113.7879C1541.9641,-117.4565 1557.6112,-121.6068 1572.0399,-126 1580.5867,-128.6023 1589.5881,-131.6614 1598.2392,-134.7677"/>
<polygon fill="#000000" stroke="#000000" points="1597.221,-138.1221 1607.8148,-138.2732 1599.6275,-131.5487 1597.221,-138.1221"/>
</g>
<!-- logits0 -->
<g id="node16" class="node">
<title>logits0</title>
<polygon fill="none" stroke="#000000" points="1785.3444,-145.5442 1785.3444,-160.4558 1765.699,-171 1737.9161,-171 1718.2707,-160.4558 1718.2707,-145.5442 1737.9161,-135 1765.699,-135 1785.3444,-145.5442"/>
<text text-anchor="middle" x="1751.8075" y="-149.3" font-family="Times,serif" font-size="14.00" fill="#000000">logits</text>
</g>
<!-- FC (op#4)&#45;&gt;logits0 -->
<g id="edge15" class="edge">
<title>FC (op#4)&#45;&gt;logits0</title>
<path fill="none" stroke="#000000" d="M1682.0824,-153C1690.3892,-153 1699.2803,-153 1707.8381,-153"/>
<polygon fill="#000000" stroke="#000000" points="1708.0497,-156.5001 1718.0497,-153 1708.0496,-149.5001 1708.0497,-156.5001"/>
</g>
<!-- logits_w0 -->
<g id="node14" class="node">
<title>logits_w0</title>
<polygon fill="none" stroke="#000000" points="1506.1398,-199.5442 1506.1398,-214.4558 1479.2198,-225 1441.1493,-225 1414.2294,-214.4558 1414.2294,-199.5442 1441.1493,-189 1479.2198,-189 1506.1398,-199.5442"/>
<text text-anchor="middle" x="1460.1846" y="-203.3" font-family="Times,serif" font-size="14.00" fill="#000000">logits_w</text>
</g>
<!-- logits_w0&#45;&gt;FC (op#4) -->
<g id="edge13" class="edge">
<title>logits_w0&#45;&gt;FC (op#4)</title>
<path fill="none" stroke="#000000" d="M1502.4618,-198.0277C1523.5293,-193.2453 1549.298,-186.9243 1572.0399,-180 1580.5867,-177.3977 1589.5881,-174.3386 1598.2392,-171.2323"/>
<polygon fill="#000000" stroke="#000000" points="1599.6275,-174.4513 1607.8148,-167.7268 1597.221,-167.8779 1599.6275,-174.4513"/>
</g>
<!-- logits_b0 -->
<g id="node15" class="node">
<title>logits_b0</title>
<polygon fill="none" stroke="#000000" points="1503.918,-145.5442 1503.918,-160.4558 1478.2996,-171 1442.0696,-171 1416.4512,-160.4558 1416.4512,-145.5442 1442.0696,-135 1478.2996,-135 1503.918,-145.5442"/>
<text text-anchor="middle" x="1460.1846" y="-149.3" font-family="Times,serif" font-size="14.00" fill="#000000">logits_b</text>
</g>
<!-- logits_b0&#45;&gt;FC (op#4) -->
<g id="edge14" class="edge">
<title>logits_b0&#45;&gt;FC (op#4)</title>
<path fill="none" stroke="#000000" d="M1503.9927,-153C1532.1389,-153 1568.6942,-153 1597.5371,-153"/>
<polygon fill="#000000" stroke="#000000" points="1597.7846,-156.5001 1607.7846,-153 1597.7846,-149.5001 1597.7846,-156.5001"/>
</g>
<!-- ArgMax (op#5) -->
<g id="node17" class="node">
<title>ArgMax (op#5)</title>
<polygon fill="#0f9d58" stroke="#0f9d58" points="1926.5752,-171 1821.5752,-171 1821.5752,-135 1926.5752,-135 1926.5752,-171"/>
<text text-anchor="middle" x="1874.0752" y="-149.3" font-family="Times,serif" font-size="14.00" fill="#ffffff">ArgMax (op#5)</text>
</g>
<!-- logits0&#45;&gt;ArgMax (op#5) -->
<g id="edge16" class="edge">
<title>logits0&#45;&gt;ArgMax (op#5)</title>
<path fill="none" stroke="#000000" d="M1785.5414,-153C1793.4669,-153 1802.1671,-153 1810.9225,-153"/>
<polygon fill="#000000" stroke="#000000" points="1811.183,-156.5001 1821.1829,-153 1811.1829,-149.5001 1811.183,-156.5001"/>
</g>
<!-- predict_label0 -->
<g id="node18" class="node">
<title>predict_label0</title>
<polygon fill="none" stroke="#000000" points="2089.0187,-145.5442 2089.0187,-160.4558 2052.0385,-171 1999.7405,-171 1962.7603,-160.4558 1962.7603,-145.5442 1999.7405,-135 2052.0385,-135 2089.0187,-145.5442"/>
<text text-anchor="middle" x="2025.8895" y="-149.3" font-family="Times,serif" font-size="14.00" fill="#000000">predict_label</text>
</g>
<!-- ArgMax (op#5)&#45;&gt;predict_label0 -->
<g id="edge17" class="edge">
<title>ArgMax (op#5)&#45;&gt;predict_label0</title>
<path fill="none" stroke="#000000" d="M1926.7464,-153C1935.0562,-153 1943.7771,-153 1952.4548,-153"/>
<polygon fill="#000000" stroke="#000000" points="1952.5948,-156.5001 1962.5947,-153 1952.5947,-149.5001 1952.5948,-156.5001"/>
</g>
</g>
</svg>
