<?xml version="1.0" encoding="UTF-8" standalone="no"?>
<!DOCTYPE svg PUBLIC "-//W3C//DTD SVG 1.1//EN"
 "http://www.w3.org/Graphics/SVG/1.1/DTD/svg11.dtd">
<!-- Generated by graphviz version 2.40.1 (20161225.0304)
 -->
<!-- Title: BOW_Model_9 Pages: 1 -->
<svg width="4922pt" height="623pt"
 viewBox="0.00 0.00 4922.00 622.66" xmlns="http://www.w3.org/2000/svg" xmlns:xlink="http://www.w3.org/1999/xlink">
<g id="graph0" class="graph" transform="scale(1 1) rotate(0) translate(4 618.6566)">
<title>BOW_Model_9</title>
<polygon fill="#ffffff" stroke="transparent" points="-4,4 -4,-618.6566 4918.0035,-618.6566 4918.0035,4 -4,4"/>
<!-- Gather (op#0) -->
<g id="node1" class="node">
<title>Gather (op#0)</title>
<polygon fill="#0f9d58" stroke="#0f9d58" points="242.1518,-63 147.1518,-63 147.1518,-27 242.1518,-27 242.1518,-63"/>
<text text-anchor="middle" x="194.6518" y="-41.3" font-family="Times,serif" font-size="14.00" fill="#ffffff">Gather (op#0)</text>
</g>
<!-- word_embedding0 -->
<g id="node4" class="node">
<title>word_embedding0</title>
<polygon fill="none" stroke="#000000" points="438.7467,-37.5442 438.7467,-52.4558 391.6514,-63 325.0485,-63 277.9532,-52.4558 277.9532,-37.5442 325.0485,-27 391.6514,-27 438.7467,-37.5442"/>
<text text-anchor="middle" x="358.35" y="-41.3" font-family="Times,serif" font-size="14.00" fill="#000000">word_embedding</text>
</g>
<!-- Gather (op#0)&#45;&gt;word_embedding0 -->
<g id="edge3" class="edge">
<title>Gather (op#0)&#45;&gt;word_embedding0</title>
<path fill="none" stroke="#000000" d="M242.4402,-45C250.444,-45 258.9767,-45 267.6434,-45"/>
<polygon fill="#000000" stroke="#000000" points="267.8553,-48.5001 277.8553,-45 267.8553,-41.5001 267.8553,-48.5001"/>
</g>
<!-- embedding0 -->
<g id="node2" class="node">
<title>embedding0</title>
<polygon fill="none" stroke="#000000" points="111.2278,-64.5442 111.2278,-79.4558 78.6277,-90 32.5241,-90 -.076,-79.4558 -.076,-64.5442 32.5241,-54 78.6277,-54 111.2278,-64.5442"/>
<text text-anchor="middle" x="55.5759" y="-68.3" font-family="Times,serif" font-size="14.00" fill="#000000">embedding</text>
</g>
<!-- embedding0&#45;&gt;Gather (op#0) -->
<g id="edge1" class="edge">
<title>embedding0&#45;&gt;Gather (op#0)</title>
<path fill="none" stroke="#000000" d="M105.0005,-62.4048C115.2954,-60.4061 126.2338,-58.2826 136.8015,-56.231"/>
<polygon fill="#000000" stroke="#000000" points="137.6371,-59.6342 146.7867,-54.2925 136.303,-52.7625 137.6371,-59.6342"/>
</g>
<!-- words0 -->
<g id="node3" class="node">
<title>words0</title>
<polygon fill="none" stroke="#000000" points="91.3326,-10.5442 91.3326,-25.4558 70.3868,-36 40.765,-36 19.8193,-25.4558 19.8193,-10.5442 40.765,0 70.3868,0 91.3326,-10.5442"/>
<text text-anchor="middle" x="55.5759" y="-14.3" font-family="Times,serif" font-size="14.00" fill="#000000">words</text>
</g>
<!-- words0&#45;&gt;Gather (op#0) -->
<g id="edge2" class="edge">
<title>words0&#45;&gt;Gather (op#0)</title>
<path fill="none" stroke="#000000" d="M91.3914,-24.9532C105.2558,-27.6448 121.4801,-30.7945 136.9067,-33.7894"/>
<polygon fill="#000000" stroke="#000000" points="136.4124,-37.2588 146.8962,-35.7288 137.7465,-30.3871 136.4124,-37.2588"/>
</g>
<!-- Reshape (op#1) -->
<g id="node5" class="node">
<title>Reshape (op#1)</title>
<polygon fill="#0f9d58" stroke="#0f9d58" points="579.5481,-63 474.5481,-63 474.5481,-27 579.5481,-27 579.5481,-63"/>
<text text-anchor="middle" x="527.0481" y="-41.3" font-family="Times,serif" font-size="14.00" fill="#ffffff">Reshape (op#1)</text>
</g>
<!-- word_embedding0&#45;&gt;Reshape (op#1) -->
<g id="edge4" class="edge">
<title>word_embedding0&#45;&gt;Reshape (op#1)</title>
<path fill="none" stroke="#000000" d="M438.7465,-45C447.2195,-45 455.7459,-45 463.9826,-45"/>
<polygon fill="#000000" stroke="#000000" points="464.235,-48.5001 474.2349,-45 464.2349,-41.5001 464.235,-48.5001"/>
</g>
<!-- word_embed_reshaped0 -->
<g id="node6" class="node">
<title>word_embed_reshaped0</title>
<polygon fill="none" stroke="#000000" points="821.1783,-60.5442 821.1783,-75.4558 760.889,-86 675.6271,-86 615.3378,-75.4558 615.3378,-60.5442 675.6271,-50 760.889,-50 821.1783,-60.5442"/>
<text text-anchor="middle" x="718.258" y="-64.3" font-family="Times,serif" font-size="14.00" fill="#000000">word_embed_reshaped</text>
</g>
<!-- Reshape (op#1)&#45;&gt;word_embed_reshaped0 -->
<g id="edge5" class="edge">
<title>Reshape (op#1)&#45;&gt;word_embed_reshaped0</title>
<path fill="none" stroke="#000000" d="M579.55,-51.3153C592.6649,-52.8928 607.1485,-54.635 621.6626,-56.3809"/>
<polygon fill="#000000" stroke="#000000" points="621.3527,-59.8687 631.6992,-57.5881 622.1888,-52.9188 621.3527,-59.8687"/>
</g>
<!-- old_shape0 -->
<g id="node7" class="node">
<title>old_shape0</title>
<polygon fill="none" stroke="#000000" points="970.6782,-14.5442 970.6782,-29.4558 940.6799,-40 898.2559,-40 868.2576,-29.4558 868.2576,-14.5442 898.2559,-4 940.6799,-4 970.6782,-14.5442"/>
<text text-anchor="middle" x="919.4679" y="-18.3" font-family="Times,serif" font-size="14.00" fill="#000000">old_shape</text>
</g>
<!-- Reshape (op#1)&#45;&gt;old_shape0 -->
<g id="edge6" class="edge">
<title>Reshape (op#1)&#45;&gt;old_shape0</title>
<path fill="none" stroke="#000000" d="M579.5644,-41.922C651.8193,-37.6871 781.624,-30.0791 858.2128,-25.5902"/>
<polygon fill="#000000" stroke="#000000" points="858.4189,-29.0842 868.197,-25.005 858.0093,-22.0962 858.4189,-29.0842"/>
</g>
<!-- ReduceSum (op#2) -->
<g id="node8" class="node">
<title>ReduceSum (op#2)</title>
<polygon fill="#0f9d58" stroke="#0f9d58" points="981.9679,-132 856.9679,-132 856.9679,-96 981.9679,-96 981.9679,-132"/>
<text text-anchor="middle" x="919.4679" y="-110.3" font-family="Times,serif" font-size="14.00" fill="#ffffff">ReduceSum (op#2)</text>
</g>
<!-- word_embed_reshaped0&#45;&gt;ReduceSum (op#2) -->
<g id="edge7" class="edge">
<title>word_embed_reshaped0&#45;&gt;ReduceSum (op#2)</title>
<path fill="none" stroke="#000000" d="M781.37,-82.4285C802.1642,-87.1824 825.4521,-92.5064 846.8939,-97.4084"/>
<polygon fill="#000000" stroke="#000000" points="846.3965,-100.8849 856.9251,-99.7016 847.9566,-94.0609 846.3965,-100.8849"/>
</g>
<!-- ReduceSumGradient (op#10) -->
<g id="node32" class="node">
<title>ReduceSumGradient (op#10)</title>
<polygon fill="#0f9d58" stroke="#0f9d58" points="4179.047,-105 3998.047,-105 3998.047,-69 4179.047,-69 4179.047,-105"/>
<text text-anchor="middle" x="4088.547" y="-83.3" font-family="Times,serif" font-size="14.00" fill="#ffffff">ReduceSumGradient (op#10)</text>
</g>
<!-- word_embed_reshaped0&#45;&gt;ReduceSumGradient (op#10) -->
<g id="edge38" class="edge">
<title>word_embed_reshaped0&#45;&gt;ReduceSumGradient (op#10)</title>
<path fill="none" stroke="#000000" d="M821.2993,-68C896.9436,-68 1002.1846,-68 1094.6486,-68 1094.6486,-68 1094.6486,-68 3613.4757,-68 3742.8251,-68 3891.8268,-75.1193 3987.9543,-80.642"/>
<polygon fill="#000000" stroke="#000000" points="3987.7722,-84.1373 3997.9581,-81.222 3988.1774,-77.149 3987.7722,-84.1373"/>
</g>
<!-- Reshape (op#11) -->
<g id="node34" class="node">
<title>Reshape (op#11)</title>
<polygon fill="#0f9d58" stroke="#0f9d58" points="4613.4904,-63 4501.4904,-63 4501.4904,-27 4613.4904,-27 4613.4904,-63"/>
<text text-anchor="middle" x="4557.4904" y="-41.3" font-family="Times,serif" font-size="14.00" fill="#ffffff">Reshape (op#11)</text>
</g>
<!-- old_shape0&#45;&gt;Reshape (op#11) -->
<g id="edge42" class="edge">
<title>old_shape0&#45;&gt;Reshape (op#11)</title>
<path fill="none" stroke="#000000" d="M970.7874,-22C1037.4145,-22 1157.3072,-22 1259.8293,-22 1259.8293,-22 1259.8293,-22 4088.547,-22 4232.1778,-22 4400.2575,-32.8969 4491.0796,-39.6897"/>
<polygon fill="#000000" stroke="#000000" points="4490.9951,-43.1932 4501.2302,-40.4559 4491.5221,-36.2131 4490.9951,-43.1932"/>
</g>
<!-- embedding_sum0 -->
<g id="node9" class="node">
<title>embedding_sum0</title>
<polygon fill="none" stroke="#000000" points="1171.5104,-106.5442 1171.5104,-121.4558 1126.4858,-132 1062.8114,-132 1017.7868,-121.4558 1017.7868,-106.5442 1062.8114,-96 1126.4858,-96 1171.5104,-106.5442"/>
<text text-anchor="middle" x="1094.6486" y="-110.3" font-family="Times,serif" font-size="14.00" fill="#000000">embedding_sum</text>
</g>
<!-- ReduceSum (op#2)&#45;&gt;embedding_sum0 -->
<g id="edge8" class="edge">
<title>ReduceSum (op#2)&#45;&gt;embedding_sum0</title>
<path fill="none" stroke="#000000" d="M982.2174,-114C990.5439,-114 999.197,-114 1007.8399,-114"/>
<polygon fill="#000000" stroke="#000000" points="1007.9612,-117.5001 1017.9611,-114 1007.9611,-110.5001 1007.9612,-117.5001"/>
</g>
<!-- Reshape (op#3) -->
<g id="node10" class="node">
<title>Reshape (op#3)</title>
<polygon fill="#0f9d58" stroke="#0f9d58" points="1312.3293,-170 1207.3293,-170 1207.3293,-134 1312.3293,-134 1312.3293,-170"/>
<text text-anchor="middle" x="1259.8293" y="-148.3" font-family="Times,serif" font-size="14.00" fill="#ffffff">Reshape (op#3)</text>
</g>
<!-- embedding_sum0&#45;&gt;Reshape (op#3) -->
<g id="edge9" class="edge">
<title>embedding_sum0&#45;&gt;Reshape (op#3)</title>
<path fill="none" stroke="#000000" d="M1149.6514,-126.6534C1164.8947,-130.1602 1181.5544,-133.9928 1197.198,-137.5916"/>
<polygon fill="#000000" stroke="#000000" points="1196.776,-141.0859 1207.3062,-139.917 1198.3455,-134.2641 1196.776,-141.0859"/>
</g>
<!-- embedding_sum0&#45;&gt;ReduceSumGradient (op#10) -->
<g id="edge39" class="edge">
<title>embedding_sum0&#45;&gt;ReduceSumGradient (op#10)</title>
<path fill="none" stroke="#000000" d="M1171.6549,-111.3361C1245.6224,-109.0089 1360.5268,-106 1460.1846,-106 1460.1846,-106 1460.1846,-106 3613.4757,-106 3742.8251,-106 3891.8268,-98.8807 3987.9543,-93.358"/>
<polygon fill="#000000" stroke="#000000" points="3988.1774,-96.851 3997.9581,-92.778 3987.7722,-89.8627 3988.1774,-96.851"/>
</g>
<!-- embedding_sum_reshape0 -->
<g id="node11" class="node">
<title>embedding_sum_reshape0</title>
<polygon fill="none" stroke="#000000" points="1571.8954,-365.5442 1571.8954,-380.4558 1506.4567,-391 1413.9125,-391 1348.4738,-380.4558 1348.4738,-365.5442 1413.9125,-355 1506.4567,-355 1571.8954,-365.5442"/>
<text text-anchor="middle" x="1460.1846" y="-369.3" font-family="Times,serif" font-size="14.00" fill="#000000">embedding_sum_reshape</text>
</g>
<!-- Reshape (op#3)&#45;&gt;embedding_sum_reshape0 -->
<g id="edge10" class="edge">
<title>Reshape (op#3)&#45;&gt;embedding_sum_reshape0</title>
<path fill="none" stroke="#000000" d="M1273.2893,-170.2303C1290.1072,-192.6827 1320.1166,-231.6911 1348.3293,-263 1375.8489,-293.5398 1409.8014,-326.3062 1433.0346,-348.057"/>
<polygon fill="#000000" stroke="#000000" points="1430.7755,-350.7359 1440.4779,-354.992 1435.5473,-345.6144 1430.7755,-350.7359"/>
</g>
<!-- sum_old_reshape0 -->
<g id="node12" class="node">
<title>sum_old_reshape0</title>
<polygon fill="none" stroke="#000000" points="1768.6348,-144.5442 1768.6348,-159.4558 1721.5395,-170 1654.9366,-170 1607.8413,-159.4558 1607.8413,-144.5442 1654.9366,-134 1721.5395,-134 1768.6348,-144.5442"/>
<text text-anchor="middle" x="1688.2381" y="-148.3" font-family="Times,serif" font-size="14.00" fill="#000000">sum_old_reshape</text>
</g>
<!-- Reshape (op#3)&#45;&gt;sum_old_reshape0 -->
<g id="edge11" class="edge">
<title>Reshape (op#3)&#45;&gt;sum_old_reshape0</title>
<path fill="none" stroke="#000000" d="M1312.3606,-152C1383.3926,-152 1511.1317,-152 1597.7702,-152"/>
<polygon fill="#000000" stroke="#000000" points="1597.862,-155.5001 1607.8619,-152 1597.8619,-148.5001 1597.862,-155.5001"/>
</g>
<!-- FC (op#4) -->
<g id="node13" class="node">
<title>FC (op#4)</title>
<polygon fill="#0f9d58" stroke="#0f9d58" points="1725.2381,-391 1651.2381,-391 1651.2381,-355 1725.2381,-355 1725.2381,-391"/>
<text text-anchor="middle" x="1688.2381" y="-369.3" font-family="Times,serif" font-size="14.00" fill="#ffffff">FC (op#4)</text>
</g>
<!-- embedding_sum_reshape0&#45;&gt;FC (op#4) -->
<g id="edge12" class="edge">
<title>embedding_sum_reshape0&#45;&gt;FC (op#4)</title>
<path fill="none" stroke="#000000" d="M1572.207,-373C1596.4756,-373 1620.8652,-373 1640.9769,-373"/>
<polygon fill="#000000" stroke="#000000" points="1641.0809,-376.5001 1651.0808,-373 1641.0808,-369.5001 1641.0809,-376.5001"/>
</g>
<!-- FCGradient (op#8) -->
<g id="node25" class="node">
<title>FCGradient (op#8)</title>
<polygon fill="#0f9d58" stroke="#0f9d58" points="3207.2416,-350 3084.2416,-350 3084.2416,-314 3207.2416,-314 3207.2416,-350"/>
<text text-anchor="middle" x="3145.7416" y="-328.3" font-family="Times,serif" font-size="14.00" fill="#ffffff">FCGradient (op#8)</text>
</g>
<!-- embedding_sum_reshape0&#45;&gt;FCGradient (op#8) -->
<g id="edge27" class="edge">
<title>embedding_sum_reshape0&#45;&gt;FCGradient (op#8)</title>
<path fill="none" stroke="#000000" d="M1507.7477,-390.8188C1578.6602,-415.7435 1716.7869,-458 1838.2038,-458 1838.2038,-458 1838.2038,-458 2724.7755,-458 2867.4353,-458 3026.3016,-390.7669 3101.5748,-354.5251"/>
<polygon fill="#000000" stroke="#000000" points="3103.3058,-357.5753 3110.7665,-350.0527 3100.2431,-351.2808 3103.3058,-357.5753"/>
</g>
<!-- Reshape (op#9) -->
<g id="node29" class="node">
<title>Reshape (op#9)</title>
<polygon fill="#0f9d58" stroke="#0f9d58" points="3665.9757,-201 3560.9757,-201 3560.9757,-165 3665.9757,-165 3665.9757,-201"/>
<text text-anchor="middle" x="3613.4757" y="-179.3" font-family="Times,serif" font-size="14.00" fill="#ffffff">Reshape (op#9)</text>
</g>
<!-- sum_old_reshape0&#45;&gt;Reshape (op#9) -->
<g id="edge34" class="edge">
<title>sum_old_reshape0&#45;&gt;Reshape (op#9)</title>
<path fill="none" stroke="#000000" d="M1768.5646,-153.6558C1828.8096,-154.7563 1913.3059,-156 1987.4715,-156 1987.4715,-156 1987.4715,-156 3145.7416,-156 3291.0263,-156 3461.2739,-169.1439 3550.9238,-177.0903"/>
<polygon fill="#000000" stroke="#000000" points="3550.6517,-180.5798 3560.9238,-177.9848 3551.2755,-173.6076 3550.6517,-180.5798"/>
</g>
<!-- logits0 -->
<g id="node16" class="node">
<title>logits0</title>
<polygon fill="none" stroke="#000000" points="1871.7407,-365.5442 1871.7407,-380.4558 1852.0953,-391 1824.3124,-391 1804.667,-380.4558 1804.667,-365.5442 1824.3124,-355 1852.0953,-355 1871.7407,-365.5442"/>
<text text-anchor="middle" x="1838.2038" y="-369.3" font-family="Times,serif" font-size="14.00" fill="#000000">logits</text>
</g>
<!-- FC (op#4)&#45;&gt;logits0 -->
<g id="edge15" class="edge">
<title>FC (op#4)&#45;&gt;logits0</title>
<path fill="none" stroke="#000000" d="M1725.3083,-373C1746.2741,-373 1772.6065,-373 1794.5652,-373"/>
<polygon fill="#000000" stroke="#000000" points="1794.6303,-376.5001 1804.6303,-373 1794.6303,-369.5001 1794.6303,-376.5001"/>
</g>
<!-- logits_w0 -->
<g id="node14" class="node">
<title>logits_w0</title>
<polygon fill="none" stroke="#000000" points="1506.1398,-228.5442 1506.1398,-243.4558 1479.2198,-254 1441.1493,-254 1414.2294,-243.4558 1414.2294,-228.5442 1441.1493,-218 1479.2198,-218 1506.1398,-228.5442"/>
<text text-anchor="middle" x="1460.1846" y="-232.3" font-family="Times,serif" font-size="14.00" fill="#000000">logits_w</text>
</g>
<!-- logits_w0&#45;&gt;FC (op#4) -->
<g id="edge13" class="edge">
<title>logits_w0&#45;&gt;FC (op#4)</title>
<path fill="none" stroke="#000000" d="M1485.9019,-251.4493C1525.7362,-275.3792 1602.6186,-321.5653 1649.2915,-349.6034"/>
<polygon fill="#000000" stroke="#000000" points="1647.5466,-352.6382 1657.9212,-354.7876 1651.1514,-346.6377 1647.5466,-352.6382"/>
</g>
<!-- logits_w0&#45;&gt;FCGradient (op#8) -->
<g id="edge28" class="edge">
<title>logits_w0&#45;&gt;FCGradient (op#8)</title>
<path fill="none" stroke="#000000" d="M1506.1549,-236C1577.3144,-236 1718.4321,-236 1838.2038,-236 1838.2038,-236 1838.2038,-236 2724.7755,-236 2857.7648,-236 3008.6046,-282.106 3088.6826,-310.4137"/>
<polygon fill="#000000" stroke="#000000" points="3087.9675,-313.8748 3098.5621,-313.9431 3090.3225,-307.2828 3087.9675,-313.8748"/>
</g>
<!-- Adagrad (op#14) -->
<g id="node43" class="node">
<title>Adagrad (op#14)</title>
<polygon fill="#0f9d58" stroke="#0f9d58" points="3669.9757,-394 3556.9757,-394 3556.9757,-358 3669.9757,-358 3669.9757,-394"/>
<text text-anchor="middle" x="3613.4757" y="-372.3" font-family="Times,serif" font-size="14.00" fill="#ffffff">Adagrad (op#14)</text>
</g>
<!-- logits_w0&#45;&gt;Adagrad (op#14) -->
<g id="edge50" class="edge">
<title>logits_w0&#45;&gt;Adagrad (op#14)</title>
<path fill="none" stroke="#000000" d="M1506.0056,-228.4015C1576.9677,-217.3121 1717.8285,-198 1838.2038,-198 1838.2038,-198 1838.2038,-198 3145.7416,-198 3313.0805,-198 3377.948,-142.136 3520.9757,-229 3565.6611,-256.1385 3592.2481,-313.947 3604.7545,-348.4321"/>
<polygon fill="#000000" stroke="#000000" points="3601.4601,-349.6149 3608.0503,-357.9106 3608.0718,-347.3158 3601.4601,-349.6149"/>
</g>
<!-- logits_b0 -->
<g id="node15" class="node">
<title>logits_b0</title>
<polygon fill="none" stroke="#000000" points="1503.918,-507.5442 1503.918,-522.4558 1478.2996,-533 1442.0696,-533 1416.4512,-522.4558 1416.4512,-507.5442 1442.0696,-497 1478.2996,-497 1503.918,-507.5442"/>
<text text-anchor="middle" x="1460.1846" y="-511.3" font-family="Times,serif" font-size="14.00" fill="#000000">logits_b</text>
</g>
<!-- logits_b0&#45;&gt;FC (op#4) -->
<g id="edge14" class="edge">
<title>logits_b0&#45;&gt;FC (op#4)</title>
<path fill="none" stroke="#000000" d="M1485.0244,-499.5332C1524.935,-474.6824 1603.6006,-425.7004 1650.4873,-396.5059"/>
<polygon fill="#000000" stroke="#000000" points="1652.4989,-399.3765 1659.1378,-391.1196 1648.7989,-393.4342 1652.4989,-399.3765"/>
</g>
<!-- Adagrad (op#15) -->
<g id="node47" class="node">
<title>Adagrad (op#15)</title>
<polygon fill="#0f9d58" stroke="#0f9d58" points="3669.9757,-532 3556.9757,-532 3556.9757,-496 3669.9757,-496 3669.9757,-532"/>
<text text-anchor="middle" x="3613.4757" y="-510.3" font-family="Times,serif" font-size="14.00" fill="#ffffff">Adagrad (op#15)</text>
</g>
<!-- logits_b0&#45;&gt;Adagrad (op#15) -->
<g id="edge56" class="edge">
<title>logits_b0&#45;&gt;Adagrad (op#15)</title>
<path fill="none" stroke="#000000" d="M1491.951,-527.7515C1556.2155,-552.3608 1706.7295,-604 1838.2038,-604 1838.2038,-604 1838.2038,-604 3145.7416,-604 3312.7987,-604 3363.8326,-638.6933 3520.9757,-582 3546.3391,-572.8495 3570.7271,-554.381 3588.0878,-538.9977"/>
<polygon fill="#000000" stroke="#000000" points="3590.5196,-541.5169 3595.5481,-532.1914 3585.8016,-536.3457 3590.5196,-541.5169"/>
</g>
<!-- SoftmaxWithLoss (op#5) -->
<g id="node17" class="node">
<title>SoftmaxWithLoss (op#5)</title>
<polygon fill="#0f9d58" stroke="#0f9d58" points="2066.9715,-370 1907.9715,-370 1907.9715,-334 2066.9715,-334 2066.9715,-370"/>
<text text-anchor="middle" x="1987.4715" y="-348.3" font-family="Times,serif" font-size="14.00" fill="#ffffff">SoftmaxWithLoss (op#5)</text>
</g>
<!-- logits0&#45;&gt;SoftmaxWithLoss (op#5) -->
<g id="edge16" class="edge">
<title>logits0&#45;&gt;SoftmaxWithLoss (op#5)</title>
<path fill="none" stroke="#000000" d="M1872.075,-368.2348C1879.971,-367.1239 1888.7451,-365.8895 1897.8285,-364.6116"/>
<polygon fill="#000000" stroke="#000000" points="1898.3648,-368.0707 1907.7796,-363.2116 1897.3895,-361.139 1898.3648,-368.0707"/>
</g>
<!-- SoftmaxWithLossGradient (op#7) -->
<g id="node23" class="node">
<title>SoftmaxWithLossGradient (op#7)</title>
<polygon fill="#0f9d58" stroke="#0f9d58" points="2828.7755,-350 2620.7755,-350 2620.7755,-314 2828.7755,-314 2828.7755,-350"/>
<text text-anchor="middle" x="2724.7755" y="-328.3" font-family="Times,serif" font-size="14.00" fill="#ffffff">SoftmaxWithLossGradient (op#7)</text>
</g>
<!-- logits0&#45;&gt;SoftmaxWithLossGradient (op#7) -->
<g id="edge22" class="edge">
<title>logits0&#45;&gt;SoftmaxWithLossGradient (op#7)</title>
<path fill="none" stroke="#000000" d="M1870.5891,-381.2945C1926.2007,-394.7872 2043.612,-420 2144.4775,-420 2144.4775,-420 2144.4775,-420 2285.4836,-420 2421.2797,-420 2576.1692,-379.0712 2660.9507,-353.0391"/>
<polygon fill="#000000" stroke="#000000" points="2662.1712,-356.3251 2670.686,-350.0205 2660.098,-349.6392 2662.1712,-356.3251"/>
</g>
<!-- softmax0 -->
<g id="node19" class="node">
<title>softmax0</title>
<polygon fill="none" stroke="#000000" points="2329.217,-366.5442 2329.217,-381.4558 2303.5986,-392 2267.3686,-392 2241.7502,-381.4558 2241.7502,-366.5442 2267.3686,-356 2303.5986,-356 2329.217,-366.5442"/>
<text text-anchor="middle" x="2285.4836" y="-370.3" font-family="Times,serif" font-size="14.00" fill="#000000">softmax</text>
</g>
<!-- SoftmaxWithLoss (op#5)&#45;&gt;softmax0 -->
<g id="edge18" class="edge">
<title>SoftmaxWithLoss (op#5)&#45;&gt;softmax0</title>
<path fill="none" stroke="#000000" d="M2067.3333,-357.8956C2119.4272,-361.7413 2186.0089,-366.6565 2231.8368,-370.0397"/>
<polygon fill="#000000" stroke="#000000" points="2231.6328,-373.534 2241.8634,-370.7798 2232.1482,-366.553 2231.6328,-373.534"/>
</g>
<!-- avgloss0 -->
<g id="node20" class="node">
<title>avgloss0</title>
<polygon fill="none" stroke="#000000" points="2185.9897,-314.5442 2185.9897,-329.4558 2161.6724,-340 2127.2827,-340 2102.9654,-329.4558 2102.9654,-314.5442 2127.2827,-304 2161.6724,-304 2185.9897,-314.5442"/>
<text text-anchor="middle" x="2144.4775" y="-318.3" font-family="Times,serif" font-size="14.00" fill="#000000">avgloss</text>
</g>
<!-- SoftmaxWithLoss (op#5)&#45;&gt;avgloss0 -->
<g id="edge19" class="edge">
<title>SoftmaxWithLoss (op#5)&#45;&gt;avgloss0</title>
<path fill="none" stroke="#000000" d="M2067.3544,-336.7363C2076.2946,-335.0281 2085.2109,-333.3244 2093.6394,-331.7139"/>
<polygon fill="#000000" stroke="#000000" points="2094.4817,-335.1164 2103.6471,-329.8017 2093.1679,-328.2408 2094.4817,-335.1164"/>
</g>
<!-- label0 -->
<g id="node18" class="node">
<title>label0</title>
<polygon fill="none" stroke="#000000" points="1869.1112,-292.5442 1869.1112,-307.4558 1851.0061,-318 1825.4016,-318 1807.2964,-307.4558 1807.2964,-292.5442 1825.4016,-282 1851.0061,-282 1869.1112,-292.5442"/>
<text text-anchor="middle" x="1838.2038" y="-296.3" font-family="Times,serif" font-size="14.00" fill="#000000">label</text>
</g>
<!-- label0&#45;&gt;SoftmaxWithLoss (op#5) -->
<g id="edge17" class="edge">
<title>label0&#45;&gt;SoftmaxWithLoss (op#5)</title>
<path fill="none" stroke="#000000" d="M1865.5818,-309.5376C1882.5147,-315.4365 1904.9606,-323.2559 1925.9724,-330.5757"/>
<polygon fill="#000000" stroke="#000000" points="1924.9058,-333.9104 1935.5006,-333.895 1927.2087,-327.3 1924.9058,-333.9104"/>
</g>
<!-- label0&#45;&gt;SoftmaxWithLossGradient (op#7) -->
<g id="edge23" class="edge">
<title>label0&#45;&gt;SoftmaxWithLossGradient (op#7)</title>
<path fill="none" stroke="#000000" d="M1869.4338,-295.5895C1924.7476,-288.1715 2043.62,-274 2144.4775,-274 2144.4775,-274 2144.4775,-274 2285.4836,-274 2418.8292,-274 2453.2237,-273.201 2584.7755,-295 2608.4327,-298.9202 2633.8966,-305.0557 2656.5367,-311.2115"/>
<polygon fill="#000000" stroke="#000000" points="2655.8158,-314.6435 2666.3871,-313.9385 2657.6835,-307.8972 2655.8158,-314.6435"/>
</g>
<!-- softmax0&#45;&gt;SoftmaxWithLossGradient (op#7) -->
<g id="edge24" class="edge">
<title>softmax0&#45;&gt;SoftmaxWithLossGradient (op#7)</title>
<path fill="none" stroke="#000000" d="M2329.1492,-370.8682C2387.4744,-366.567 2494.0032,-358.299 2584.7755,-349 2593.091,-348.1481 2601.6785,-347.2211 2610.3176,-346.2542"/>
<polygon fill="#000000" stroke="#000000" points="2610.9277,-349.7075 2620.4696,-345.1028 2610.1388,-342.7521 2610.9277,-349.7075"/>
</g>
<!-- ConstantFill (op#6) -->
<g id="node21" class="node">
<title>ConstantFill (op#6)</title>
<polygon fill="#0f9d58" stroke="#0f9d58" points="2348.9836,-338 2221.9836,-338 2221.9836,-302 2348.9836,-302 2348.9836,-338"/>
<text text-anchor="middle" x="2285.4836" y="-316.3" font-family="Times,serif" font-size="14.00" fill="#ffffff">ConstantFill (op#6)</text>
</g>
<!-- avgloss0&#45;&gt;ConstantFill (op#6) -->
<g id="edge20" class="edge">
<title>avgloss0&#45;&gt;ConstantFill (op#6)</title>
<path fill="none" stroke="#000000" d="M2186.0214,-321.4108C2194.079,-321.2965 2202.7475,-321.1735 2211.4878,-321.0495"/>
<polygon fill="#000000" stroke="#000000" points="2211.7994,-324.5456 2221.7488,-320.904 2211.7001,-317.5463 2211.7994,-324.5456"/>
</g>
<!-- avgloss_autogen_grad0 -->
<g id="node22" class="node">
<title>avgloss_autogen_grad0</title>
<polygon fill="none" stroke="#000000" points="2584.6715,-314.5442 2584.6715,-329.4558 2526.2147,-340 2443.5443,-340 2385.0876,-329.4558 2385.0876,-314.5442 2443.5443,-304 2526.2147,-304 2584.6715,-314.5442"/>
<text text-anchor="middle" x="2484.8795" y="-318.3" font-family="Times,serif" font-size="14.00" fill="#000000">avgloss_autogen_grad</text>
</g>
<!-- ConstantFill (op#6)&#45;&gt;avgloss_autogen_grad0 -->
<g id="edge21" class="edge">
<title>ConstantFill (op#6)&#45;&gt;avgloss_autogen_grad0</title>
<path fill="none" stroke="#000000" d="M2349.1219,-320.6383C2357.3138,-320.7205 2365.8811,-320.8064 2374.5569,-320.8934"/>
<polygon fill="#000000" stroke="#000000" points="2374.7407,-324.3954 2384.7754,-320.9959 2374.811,-317.3957 2374.7407,-324.3954"/>
</g>
<!-- avgloss_autogen_grad0&#45;&gt;SoftmaxWithLossGradient (op#7) -->
<g id="edge25" class="edge">
<title>avgloss_autogen_grad0&#45;&gt;SoftmaxWithLossGradient (op#7)</title>
<path fill="none" stroke="#000000" d="M2584.8799,-326.1685C2593.3812,-326.5229 2602.02,-326.883 2610.619,-327.2414"/>
<polygon fill="#000000" stroke="#000000" points="2610.5476,-330.7414 2620.6847,-327.661 2610.8392,-323.7475 2610.5476,-330.7414"/>
</g>
<!-- logits_grad0 -->
<g id="node24" class="node">
<title>logits_grad0</title>
<polygon fill="none" stroke="#000000" points="3007.6605,-324.5442 3007.6605,-339.4558 2975.0603,-350 2928.9568,-350 2896.3566,-339.4558 2896.3566,-324.5442 2928.9568,-314 2975.0603,-314 3007.6605,-324.5442"/>
<text text-anchor="middle" x="2952.0085" y="-328.3" font-family="Times,serif" font-size="14.00" fill="#000000">logits_grad</text>
</g>
<!-- SoftmaxWithLossGradient (op#7)&#45;&gt;logits_grad0 -->
<g id="edge26" class="edge">
<title>SoftmaxWithLossGradient (op#7)&#45;&gt;logits_grad0</title>
<path fill="none" stroke="#000000" d="M2829.0812,-332C2848.5804,-332 2868.4478,-332 2886.3653,-332"/>
<polygon fill="#000000" stroke="#000000" points="2886.387,-335.5001 2896.387,-332 2886.387,-328.5001 2886.387,-335.5001"/>
</g>
<!-- logits_grad0&#45;&gt;FCGradient (op#8) -->
<g id="edge29" class="edge">
<title>logits_grad0&#45;&gt;FCGradient (op#8)</title>
<path fill="none" stroke="#000000" d="M3007.7843,-332C3028.3387,-332 3051.9231,-332 3073.7101,-332"/>
<polygon fill="#000000" stroke="#000000" points="3073.907,-335.5001 3083.907,-332 3073.9069,-328.5001 3073.907,-335.5001"/>
</g>
<!-- logits_w_grad0 -->
<g id="node26" class="node">
<title>logits_w_grad0</title>
<polygon fill="none" stroke="#000000" points="3455.0871,-324.5442 3455.0871,-339.4558 3414.9734,-350 3358.244,-350 3318.1303,-339.4558 3318.1303,-324.5442 3358.244,-314 3414.9734,-314 3455.0871,-324.5442"/>
<text text-anchor="middle" x="3386.6087" y="-328.3" font-family="Times,serif" font-size="14.00" fill="#000000">logits_w_grad</text>
</g>
<!-- FCGradient (op#8)&#45;&gt;logits_w_grad0 -->
<g id="edge30" class="edge">
<title>FCGradient (op#8)&#45;&gt;logits_w_grad0</title>
<path fill="none" stroke="#000000" d="M3207.4581,-332C3238.0211,-332 3275.2638,-332 3307.8594,-332"/>
<polygon fill="#000000" stroke="#000000" points="3308.2647,-335.5001 3318.2647,-332 3308.2647,-328.5001 3308.2647,-335.5001"/>
</g>
<!-- logits_b_grad0 -->
<g id="node27" class="node">
<title>logits_b_grad0</title>
<polygon fill="none" stroke="#000000" points="3451.9584,-547.5442 3451.9584,-562.4558 3413.6774,-573 3359.5399,-573 3321.259,-562.4558 3321.259,-547.5442 3359.5399,-537 3413.6774,-537 3451.9584,-547.5442"/>
<text text-anchor="middle" x="3386.6087" y="-551.3" font-family="Times,serif" font-size="14.00" fill="#000000">logits_b_grad</text>
</g>
<!-- FCGradient (op#8)&#45;&gt;logits_b_grad0 -->
<g id="edge31" class="edge">
<title>FCGradient (op#8)&#45;&gt;logits_b_grad0</title>
<path fill="none" stroke="#000000" d="M3157.6449,-350.2646C3172.2324,-372.972 3197.3377,-413.1229 3216.2416,-449 3234.2282,-483.1361 3222.0162,-504.0164 3252.2416,-528 3268.9002,-541.2184 3290.3045,-548.4981 3311.1103,-552.3745"/>
<polygon fill="#000000" stroke="#000000" points="3310.822,-555.8733 3321.2526,-554.0153 3311.9399,-548.9632 3310.822,-555.8733"/>
</g>
<!-- embedding_sum_reshape_grad0 -->
<g id="node28" class="node">
<title>embedding_sum_reshape_grad0</title>
<polygon fill="none" stroke="#000000" points="3520.8429,-248.5442 3520.8429,-263.4558 3442.2103,-274 3331.007,-274 3252.3744,-263.4558 3252.3744,-248.5442 3331.007,-238 3442.2103,-238 3520.8429,-248.5442"/>
<text text-anchor="middle" x="3386.6087" y="-252.3" font-family="Times,serif" font-size="14.00" fill="#000000">embedding_sum_reshape_grad</text>
</g>
<!-- FCGradient (op#8)&#45;&gt;embedding_sum_reshape_grad0 -->
<g id="edge32" class="edge">
<title>FCGradient (op#8)&#45;&gt;embedding_sum_reshape_grad0</title>
<path fill="none" stroke="#000000" d="M3202.8237,-313.9891C3238.0702,-302.8679 3283.437,-288.5534 3320.2775,-276.9293"/>
<polygon fill="#000000" stroke="#000000" points="3321.4529,-280.2286 3329.9363,-273.8817 3319.3465,-273.553 3321.4529,-280.2286"/>
</g>
<!-- logits_w_grad0&#45;&gt;Adagrad (op#14) -->
<g id="edge52" class="edge">
<title>logits_w_grad0&#45;&gt;Adagrad (op#14)</title>
<path fill="none" stroke="#000000" d="M3442.3972,-342.82C3473.9051,-348.9308 3513.4946,-356.609 3546.6521,-363.0398"/>
<polygon fill="#000000" stroke="#000000" points="3546.2363,-366.5243 3556.7198,-364.9924 3547.5691,-359.6524 3546.2363,-366.5243"/>
</g>
<!-- logits_b_grad0&#45;&gt;Adagrad (op#15) -->
<g id="edge58" class="edge">
<title>logits_b_grad0&#45;&gt;Adagrad (op#15)</title>
<path fill="none" stroke="#000000" d="M3442.6882,-544.8652C3474.2002,-539.1702 3513.7259,-532.0271 3546.8145,-526.0472"/>
<polygon fill="#000000" stroke="#000000" points="3547.6426,-529.4543 3556.8607,-524.2316 3546.3977,-522.5659 3547.6426,-529.4543"/>
</g>
<!-- embedding_sum_reshape_grad0&#45;&gt;Reshape (op#9) -->
<g id="edge33" class="edge">
<title>embedding_sum_reshape_grad0&#45;&gt;Reshape (op#9)</title>
<path fill="none" stroke="#000000" d="M3442.6882,-237.9551C3475.5303,-227.3873 3517.0768,-214.0187 3550.9689,-203.1131"/>
<polygon fill="#000000" stroke="#000000" points="3552.3189,-206.3555 3560.7661,-199.9606 3550.1747,-199.692 3552.3189,-206.3555"/>
</g>
<!-- embedding_sum_grad0 -->
<g id="node30" class="node">
<title>embedding_sum_grad0</title>
<polygon fill="none" stroke="#000000" points="3933.3966,-144.5442 3933.3966,-159.4558 3875.1781,-170 3792.8447,-170 3734.6261,-159.4558 3734.6261,-144.5442 3792.8447,-134 3875.1781,-134 3933.3966,-144.5442"/>
<text text-anchor="middle" x="3834.0114" y="-148.3" font-family="Times,serif" font-size="14.00" fill="#000000">embedding_sum_grad</text>
</g>
<!-- Reshape (op#9)&#45;&gt;embedding_sum_grad0 -->
<g id="edge35" class="edge">
<title>Reshape (op#9)&#45;&gt;embedding_sum_grad0</title>
<path fill="none" stroke="#000000" d="M3666.0193,-175.6141C3689.5171,-172.3111 3717.8852,-168.3235 3744.5656,-164.5731"/>
<polygon fill="#000000" stroke="#000000" points="3745.2794,-168.0073 3754.6948,-163.1493 3744.3049,-161.0754 3745.2794,-168.0073"/>
</g>
<!-- _embedding_sum_grad_dims0 -->
<g id="node31" class="node">
<title>_embedding_sum_grad_dims0</title>
<polygon fill="none" stroke="#000000" points="3962.0827,-198.5442 3962.0827,-213.4558 3887.0602,-224 3780.9625,-224 3705.9401,-213.4558 3705.9401,-198.5442 3780.9625,-188 3887.0602,-188 3962.0827,-198.5442"/>
<text text-anchor="middle" x="3834.0114" y="-202.3" font-family="Times,serif" font-size="14.00" fill="#000000">_embedding_sum_grad_dims</text>
</g>
<!-- Reshape (op#9)&#45;&gt;_embedding_sum_grad_dims0 -->
<g id="edge36" class="edge">
<title>Reshape (op#9)&#45;&gt;_embedding_sum_grad_dims0</title>
<path fill="none" stroke="#000000" d="M3666.0193,-188.4799C3682.3263,-190.1805 3700.9789,-192.1258 3719.7852,-194.0872"/>
<polygon fill="#000000" stroke="#000000" points="3719.6181,-197.5886 3729.9272,-195.1449 3720.3442,-190.6264 3719.6181,-197.5886"/>
</g>
<!-- embedding_sum_grad0&#45;&gt;ReduceSumGradient (op#10) -->
<g id="edge37" class="edge">
<title>embedding_sum_grad0&#45;&gt;ReduceSumGradient (op#10)</title>
<path fill="none" stroke="#000000" d="M3893.6473,-137.2301C3915.2106,-131.8539 3939.7364,-125.698 3962.047,-120 3977.6176,-116.0234 3994.252,-111.7221 4010.1707,-107.5799"/>
<polygon fill="#000000" stroke="#000000" points="4011.1795,-110.934 4019.9739,-105.0257 4009.4145,-104.1601 4011.1795,-110.934"/>
</g>
<!-- word_embed_reshaped_grad0 -->
<g id="node33" class="node">
<title>word_embed_reshaped_grad0</title>
<polygon fill="none" stroke="#000000" points="4465.7124,-79.5442 4465.7124,-94.4558 4392.2292,-105 4288.3082,-105 4214.825,-94.4558 4214.825,-79.5442 4288.3082,-69 4392.2292,-69 4465.7124,-79.5442"/>
<text text-anchor="middle" x="4340.2687" y="-83.3" font-family="Times,serif" font-size="14.00" fill="#000000">word_embed_reshaped_grad</text>
</g>
<!-- ReduceSumGradient (op#10)&#45;&gt;word_embed_reshaped_grad0 -->
<g id="edge40" class="edge">
<title>ReduceSumGradient (op#10)&#45;&gt;word_embed_reshaped_grad0</title>
<path fill="none" stroke="#000000" d="M4179.0687,-87C4187.4772,-87 4196.1147,-87 4204.8137,-87"/>
<polygon fill="#000000" stroke="#000000" points="4205.0438,-90.5001 4215.0438,-87 4205.0437,-83.5001 4205.0438,-90.5001"/>
</g>
<!-- word_embed_reshaped_grad0&#45;&gt;Reshape (op#11) -->
<g id="edge41" class="edge">
<title>word_embed_reshaped_grad0&#45;&gt;Reshape (op#11)</title>
<path fill="none" stroke="#000000" d="M4415.9373,-72.3694C4440.4715,-67.6257 4467.4828,-62.403 4491.2746,-57.8029"/>
<polygon fill="#000000" stroke="#000000" points="4492.1037,-61.2075 4501.2574,-55.8727 4490.7748,-54.3348 4492.1037,-61.2075"/>
</g>
<!-- word_embedding_grad0 -->
<g id="node35" class="node">
<title>word_embedding_grad0</title>
<polygon fill="none" stroke="#000000" points="4884.6672,-64.5442 4884.6672,-79.4558 4824.3779,-90 4739.116,-90 4678.8267,-79.4558 4678.8267,-64.5442 4739.116,-54 4824.3779,-54 4884.6672,-64.5442"/>
<text text-anchor="middle" x="4781.7469" y="-68.3" font-family="Times,serif" font-size="14.00" fill="#000000">word_embedding_grad</text>
</g>
<!-- Reshape (op#11)&#45;&gt;word_embedding_grad0 -->
<g id="edge43" class="edge">
<title>Reshape (op#11)&#45;&gt;word_embedding_grad0</title>
<path fill="none" stroke="#000000" d="M4613.5013,-51.7436C4635.2797,-54.3657 4660.8635,-57.4459 4685.4162,-60.402"/>
<polygon fill="#000000" stroke="#000000" points="4685.1466,-63.8947 4695.4933,-61.6152 4685.9834,-56.9449 4685.1466,-63.8947"/>
</g>
<!-- _word_embedding_grad_dims0 -->
<g id="node36" class="node">
<title>_word_embedding_grad_dims0</title>
<polygon fill="none" stroke="#000000" points="4913.7606,-10.5442 4913.7606,-25.4558 4836.4288,-36 4727.0651,-36 4649.7333,-25.4558 4649.7333,-10.5442 4727.0651,0 4836.4288,0 4913.7606,-10.5442"/>
<text text-anchor="middle" x="4781.7469" y="-14.3" font-family="Times,serif" font-size="14.00" fill="#000000">_word_embedding_grad_dims</text>
</g>
<!-- Reshape (op#11)&#45;&gt;_word_embedding_grad_dims0 -->
<g id="edge44" class="edge">
<title>Reshape (op#11)&#45;&gt;_word_embedding_grad_dims0</title>
<path fill="none" stroke="#000000" d="M4613.5013,-38.2564C4631.451,-36.0953 4651.9859,-33.6229 4672.3978,-31.1654"/>
<polygon fill="#000000" stroke="#000000" points="4672.8866,-34.6319 4682.3965,-29.9616 4672.0498,-27.6821 4672.8866,-34.6319"/>
</g>
<!-- AtomicIter (op#12) -->
<g id="node37" class="node">
<title>AtomicIter (op#12)</title>
<polygon fill="#0f9d58" stroke="#0f9d58" points="2787.7755,-522 2661.7755,-522 2661.7755,-486 2787.7755,-486 2787.7755,-522"/>
<text text-anchor="middle" x="2724.7755" y="-500.3" font-family="Times,serif" font-size="14.00" fill="#ffffff">AtomicIter (op#12)</text>
</g>
<!-- optimizer_iteration1 -->
<g id="node40" class="node">
<title>optimizer_iteration1</title>
<polygon fill="none" stroke="#000000" points="3039.4753,-496.5442 3039.4753,-511.4558 2988.2385,-522 2915.7786,-522 2864.5418,-511.4558 2864.5418,-496.5442 2915.7786,-486 2988.2385,-486 3039.4753,-496.5442"/>
<text text-anchor="middle" x="2952.0085" y="-500.3" font-family="Times,serif" font-size="14.00" fill="#000000">optimizer_iteration</text>
</g>
<!-- AtomicIter (op#12)&#45;&gt;optimizer_iteration1 -->
<g id="edge47" class="edge">
<title>AtomicIter (op#12)&#45;&gt;optimizer_iteration1</title>
<path fill="none" stroke="#000000" d="M2788.0725,-504C2808.571,-504 2831.8078,-504 2854.2082,-504"/>
<polygon fill="#000000" stroke="#000000" points="2854.4286,-507.5001 2864.4286,-504 2854.4285,-500.5001 2854.4286,-507.5001"/>
</g>
<!-- iteration_mutex0 -->
<g id="node38" class="node">
<title>iteration_mutex0</title>
<polygon fill="none" stroke="#000000" points="2558.6132,-550.5442 2558.6132,-565.4558 2515.421,-576 2454.338,-576 2411.1459,-565.4558 2411.1459,-550.5442 2454.338,-540 2515.421,-540 2558.6132,-550.5442"/>
<text text-anchor="middle" x="2484.8795" y="-554.3" font-family="Times,serif" font-size="14.00" fill="#000000">iteration_mutex</text>
</g>
<!-- iteration_mutex0&#45;&gt;AtomicIter (op#12) -->
<g id="edge45" class="edge">
<title>iteration_mutex0&#45;&gt;AtomicIter (op#12)</title>
<path fill="none" stroke="#000000" d="M2539.3156,-545.7466C2572.5485,-538.2659 2615.4597,-528.6067 2651.6344,-520.4639"/>
<polygon fill="#000000" stroke="#000000" points="2652.6579,-523.8211 2661.6452,-518.2105 2651.1206,-516.992 2652.6579,-523.8211"/>
</g>
<!-- optimizer_iteration0 -->
<g id="node39" class="node">
<title>optimizer_iteration0</title>
<polygon fill="none" stroke="#000000" points="2572.3463,-496.5442 2572.3463,-511.4558 2521.1095,-522 2448.6496,-522 2397.4128,-511.4558 2397.4128,-496.5442 2448.6496,-486 2521.1095,-486 2572.3463,-496.5442"/>
<text text-anchor="middle" x="2484.8795" y="-500.3" font-family="Times,serif" font-size="14.00" fill="#000000">optimizer_iteration</text>
</g>
<!-- optimizer_iteration0&#45;&gt;AtomicIter (op#12) -->
<g id="edge46" class="edge">
<title>optimizer_iteration0&#45;&gt;AtomicIter (op#12)</title>
<path fill="none" stroke="#000000" d="M2572.1661,-504C2598.188,-504 2626.43,-504 2651.4623,-504"/>
<polygon fill="#000000" stroke="#000000" points="2651.6121,-507.5001 2661.6121,-504 2651.612,-500.5001 2651.6121,-507.5001"/>
</g>
<!-- LearningRate (op#13) -->
<g id="node41" class="node">
<title>LearningRate (op#13)</title>
<polygon fill="#0f9d58" stroke="#0f9d58" points="3216.2416,-494 3075.2416,-494 3075.2416,-458 3216.2416,-458 3216.2416,-494"/>
<text text-anchor="middle" x="3145.7416" y="-472.3" font-family="Times,serif" font-size="14.00" fill="#ffffff">LearningRate (op#13)</text>
</g>
<!-- optimizer_iteration1&#45;&gt;LearningRate (op#13) -->
<g id="edge48" class="edge">
<title>optimizer_iteration1&#45;&gt;LearningRate (op#13)</title>
<path fill="none" stroke="#000000" d="M3024.6988,-493.4942C3037.8749,-491.5898 3051.6885,-489.5934 3065.0771,-487.6583"/>
<polygon fill="#000000" stroke="#000000" points="3065.8186,-491.0876 3075.2151,-486.1931 3064.8172,-484.1596 3065.8186,-491.0876"/>
</g>
<!-- AdagradOptimizer_8_lr_cpu0 -->
<g id="node42" class="node">
<title>AdagradOptimizer_8_lr_cpu0</title>
<polygon fill="none" stroke="#000000" points="3512.0524,-439.5442 3512.0524,-454.4558 3438.5692,-465 3334.6482,-465 3261.165,-454.4558 3261.165,-439.5442 3334.6482,-429 3438.5692,-429 3512.0524,-439.5442"/>
<text text-anchor="middle" x="3386.6087" y="-443.3" font-family="Times,serif" font-size="14.00" fill="#000000">AdagradOptimizer_8_lr_cpu</text>
</g>
<!-- LearningRate (op#13)&#45;&gt;AdagradOptimizer_8_lr_cpu0 -->
<g id="edge49" class="edge">
<title>LearningRate (op#13)&#45;&gt;AdagradOptimizer_8_lr_cpu0</title>
<path fill="none" stroke="#000000" d="M3216.3822,-467.495C3236.2749,-465.0999 3258.3675,-462.44 3279.8701,-459.8512"/>
<polygon fill="#000000" stroke="#000000" points="3280.5209,-463.2982 3290.0308,-458.6278 3279.6841,-456.3484 3280.5209,-463.2982"/>
</g>
<!-- AdagradOptimizer_8_lr_cpu0&#45;&gt;Adagrad (op#14) -->
<g id="edge53" class="edge">
<title>AdagradOptimizer_8_lr_cpu0&#45;&gt;Adagrad (op#14)</title>
<path fill="none" stroke="#000000" d="M3455.8115,-431.3539C3476.8994,-426.0878 3500.0359,-419.804 3520.9757,-413 3534.4772,-408.6129 3548.8296,-403.2356 3562.0995,-397.9539"/>
<polygon fill="#000000" stroke="#000000" points="3563.5811,-401.1303 3571.543,-394.1405 3560.96,-394.6395 3563.5811,-401.1303"/>
</g>
<!-- AdagradOptimizer_8_lr_cpu0&#45;&gt;Adagrad (op#15) -->
<g id="edge59" class="edge">
<title>AdagradOptimizer_8_lr_cpu0&#45;&gt;Adagrad (op#15)</title>
<path fill="none" stroke="#000000" d="M3469.0163,-460.7147C3486.3497,-464.3894 3504.3986,-468.8135 3520.9757,-474 3536.317,-478.7999 3552.5607,-485.3065 3567.0832,-491.6766"/>
<polygon fill="#000000" stroke="#000000" points="3565.7937,-494.934 3576.3511,-495.8237 3568.6528,-488.5445 3565.7937,-494.934"/>
</g>
<!-- logits_w1 -->
<g id="node45" class="node">
<title>logits_w1</title>
<polygon fill="none" stroke="#000000" points="3879.9665,-341.5442 3879.9665,-356.4558 3853.0466,-367 3814.9761,-367 3788.0562,-356.4558 3788.0562,-341.5442 3814.9761,-331 3853.0466,-331 3879.9665,-341.5442"/>
<text text-anchor="middle" x="3834.0114" y="-345.3" font-family="Times,serif" font-size="14.00" fill="#000000">logits_w</text>
</g>
<!-- Adagrad (op#14)&#45;&gt;logits_w1 -->
<g id="edge54" class="edge">
<title>Adagrad (op#14)&#45;&gt;logits_w1</title>
<path fill="none" stroke="#000000" d="M3669.9828,-369.0819C3703.176,-365.0181 3744.9744,-359.9007 3778.0693,-355.8489"/>
<polygon fill="#000000" stroke="#000000" points="3778.541,-359.3174 3788.0415,-354.6281 3777.6903,-352.3693 3778.541,-359.3174"/>
</g>
<!-- logits_w_squared_sum1 -->
<g id="node46" class="node">
<title>logits_w_squared_sum1</title>
<polygon fill="none" stroke="#000000" points="3936.9316,-395.5442 3936.9316,-410.4558 3876.6423,-421 3791.3804,-421 3731.0911,-410.4558 3731.0911,-395.5442 3791.3804,-385 3876.6423,-385 3936.9316,-395.5442"/>
<text text-anchor="middle" x="3834.0114" y="-399.3" font-family="Times,serif" font-size="14.00" fill="#000000">logits_w_squared_sum</text>
</g>
<!-- Adagrad (op#14)&#45;&gt;logits_w_squared_sum1 -->
<g id="edge55" class="edge">
<title>Adagrad (op#14)&#45;&gt;logits_w_squared_sum1</title>
<path fill="none" stroke="#000000" d="M3669.9828,-382.9181C3690.6603,-385.4496 3714.677,-388.39 3737.8489,-391.2269"/>
<polygon fill="#000000" stroke="#000000" points="3737.7157,-394.7366 3748.0669,-392.4779 3738.5664,-387.7885 3737.7157,-394.7366"/>
</g>
<!-- logits_w_squared_sum0 -->
<g id="node44" class="node">
<title>logits_w_squared_sum0</title>
<polygon fill="none" stroke="#000000" points="3489.5289,-378.5442 3489.5289,-393.4558 3429.2396,-404 3343.9777,-404 3283.6884,-393.4558 3283.6884,-378.5442 3343.9777,-368 3429.2396,-368 3489.5289,-378.5442"/>
<text text-anchor="middle" x="3386.6087" y="-382.3" font-family="Times,serif" font-size="14.00" fill="#000000">logits_w_squared_sum</text>
</g>
<!-- logits_w_squared_sum0&#45;&gt;Adagrad (op#14) -->
<g id="edge51" class="edge">
<title>logits_w_squared_sum0&#45;&gt;Adagrad (op#14)</title>
<path fill="none" stroke="#000000" d="M3489.4217,-381.4681C3508.9172,-380.6088 3528.8348,-379.7309 3546.8439,-378.937"/>
<polygon fill="#000000" stroke="#000000" points="3547.0862,-382.4299 3556.9224,-378.4928 3546.7779,-375.4366 3547.0862,-382.4299"/>
</g>
<!-- logits_b1 -->
<g id="node49" class="node">
<title>logits_b1</title>
<polygon fill="none" stroke="#000000" points="3877.7448,-469.5442 3877.7448,-484.4558 3852.1263,-495 3815.8964,-495 3790.278,-484.4558 3790.278,-469.5442 3815.8964,-459 3852.1263,-459 3877.7448,-469.5442"/>
<text text-anchor="middle" x="3834.0114" y="-473.3" font-family="Times,serif" font-size="14.00" fill="#000000">logits_b</text>
</g>
<!-- Adagrad (op#15)&#45;&gt;logits_b1 -->
<g id="edge60" class="edge">
<title>Adagrad (op#15)&#45;&gt;logits_b1</title>
<path fill="none" stroke="#000000" d="M3669.9828,-504.5196C3703.87,-498.8343 3746.7258,-491.6442 3780.1333,-486.0393"/>
<polygon fill="#000000" stroke="#000000" points="3780.8945,-489.4606 3790.1775,-484.3542 3779.7362,-482.5571 3780.8945,-489.4606"/>
</g>
<!-- logits_b_squared_sum1 -->
<g id="node50" class="node">
<title>logits_b_squared_sum1</title>
<polygon fill="none" stroke="#000000" points="3933.8034,-523.5442 3933.8034,-538.4558 3875.3466,-549 3792.6762,-549 3734.2194,-538.4558 3734.2194,-523.5442 3792.6762,-513 3875.3466,-513 3933.8034,-523.5442"/>
<text text-anchor="middle" x="3834.0114" y="-527.3" font-family="Times,serif" font-size="14.00" fill="#000000">logits_b_squared_sum</text>
</g>
<!-- Adagrad (op#15)&#45;&gt;logits_b_squared_sum1 -->
<g id="edge61" class="edge">
<title>Adagrad (op#15)&#45;&gt;logits_b_squared_sum1</title>
<path fill="none" stroke="#000000" d="M3669.9828,-518.3558C3686.7504,-519.6484 3705.7138,-521.1102 3724.642,-522.5693"/>
<polygon fill="#000000" stroke="#000000" points="3724.5917,-526.0757 3734.8311,-523.3547 3725.1297,-519.0964 3724.5917,-526.0757"/>
</g>
<!-- logits_b_squared_sum0 -->
<g id="node48" class="node">
<title>logits_b_squared_sum0</title>
<polygon fill="none" stroke="#000000" points="3486.4007,-493.5442 3486.4007,-508.4558 3427.9439,-519 3345.2735,-519 3286.8167,-508.4558 3286.8167,-493.5442 3345.2735,-483 3427.9439,-483 3486.4007,-493.5442"/>
<text text-anchor="middle" x="3386.6087" y="-497.3" font-family="Times,serif" font-size="14.00" fill="#000000">logits_b_squared_sum</text>
</g>
<!-- logits_b_squared_sum0&#45;&gt;Adagrad (op#15) -->
<g id="edge57" class="edge">
<title>logits_b_squared_sum0&#45;&gt;Adagrad (op#15)</title>
<path fill="none" stroke="#000000" d="M3486.446,-506.7209C3506.9019,-507.8931 3527.9563,-509.0995 3546.8963,-510.1848"/>
<polygon fill="#000000" stroke="#000000" points="3546.7037,-513.6795 3556.8876,-510.7574 3547.1042,-506.6909 3546.7037,-513.6795"/>
</g>
</g>
</svg>
