<?xml version="1.0" encoding="UTF-8" standalone="no"?>
<!DOCTYPE svg PUBLIC "-//W3C//DTD SVG 1.1//EN"
 "http://www.w3.org/Graphics/SVG/1.1/DTD/svg11.dtd">
<!-- Generated by graphviz version 2.40.1 (20161225.0304)
 -->
<!-- Title: BOW_Model_10 Pages: 1 -->
<svg width="4953pt" height="605pt"
 viewBox="0.00 0.00 4953.00 604.60" xmlns="http://www.w3.org/2000/svg" xmlns:xlink="http://www.w3.org/1999/xlink">
<g id="graph0" class="graph" transform="scale(1 1) rotate(0) translate(4 600.5998)">
<title>BOW_Model_10</title>
<polygon fill="#ffffff" stroke="transparent" points="-4,4 -4,-600.5998 4949.0035,-600.5998 4949.0035,4 -4,4"/>
<!-- Gather (op#0) -->
<g id="node1" class="node">
<title>Gather (op#0)</title>
<polygon fill="#0f9d58" stroke="#0f9d58" points="242.1518,-63 147.1518,-63 147.1518,-27 242.1518,-27 242.1518,-63"/>
<text text-anchor="middle" x="194.6518" y="-41.3" font-family="Times,serif" font-size="14.00" fill="#ffffff">Gather (op#0)</text>
</g>
<!-- word_embedding0 -->
<g id="node4" class="node">
<title>word_embedding0</title>
<polygon fill="none" stroke="#000000" points="438.7467,-37.5442 438.7467,-52.4558 391.6514,-63 325.0485,-63 277.9532,-52.4558 277.9532,-37.5442 325.0485,-27 391.6514,-27 438.7467,-37.5442"/>
<text text-anchor="middle" x="358.35" y="-41.3" font-family="Times,serif" font-size="14.00" fill="#000000">word_embedding</text>
</g>
<!-- Gather (op#0)&#45;&gt;word_embedding0 -->
<g id="edge3" class="edge">
<title>Gather (op#0)&#45;&gt;word_embedding0</title>
<path fill="none" stroke="#000000" d="M242.4402,-45C250.444,-45 258.9767,-45 267.6434,-45"/>
<polygon fill="#000000" stroke="#000000" points="267.8553,-48.5001 277.8553,-45 267.8553,-41.5001 267.8553,-48.5001"/>
</g>
<!-- embedding0 -->
<g id="node2" class="node">
<title>embedding0</title>
<polygon fill="none" stroke="#000000" points="111.2278,-64.5442 111.2278,-79.4558 78.6277,-90 32.5241,-90 -.076,-79.4558 -.076,-64.5442 32.5241,-54 78.6277,-54 111.2278,-64.5442"/>
<text text-anchor="middle" x="55.5759" y="-68.3" font-family="Times,serif" font-size="14.00" fill="#000000">embedding</text>
</g>
<!-- embedding0&#45;&gt;Gather (op#0) -->
<g id="edge1" class="edge">
<title>embedding0&#45;&gt;Gather (op#0)</title>
<path fill="none" stroke="#000000" d="M105.0005,-62.4048C115.2954,-60.4061 126.2338,-58.2826 136.8015,-56.231"/>
<polygon fill="#000000" stroke="#000000" points="137.6371,-59.6342 146.7867,-54.2925 136.303,-52.7625 137.6371,-59.6342"/>
</g>
<!-- words0 -->
<g id="node3" class="node">
<title>words0</title>
<polygon fill="none" stroke="#000000" points="91.3326,-10.5442 91.3326,-25.4558 70.3868,-36 40.765,-36 19.8193,-25.4558 19.8193,-10.5442 40.765,0 70.3868,0 91.3326,-10.5442"/>
<text text-anchor="middle" x="55.5759" y="-14.3" font-family="Times,serif" font-size="14.00" fill="#000000">words</text>
</g>
<!-- words0&#45;&gt;Gather (op#0) -->
<g id="edge2" class="edge">
<title>words0&#45;&gt;Gather (op#0)</title>
<path fill="none" stroke="#000000" d="M91.3914,-24.9532C105.2558,-27.6448 121.4801,-30.7945 136.9067,-33.7894"/>
<polygon fill="#000000" stroke="#000000" points="136.4124,-37.2588 146.8962,-35.7288 137.7465,-30.3871 136.4124,-37.2588"/>
</g>
<!-- Reshape (op#1) -->
<g id="node5" class="node">
<title>Reshape (op#1)</title>
<polygon fill="#0f9d58" stroke="#0f9d58" points="579.5481,-63 474.5481,-63 474.5481,-27 579.5481,-27 579.5481,-63"/>
<text text-anchor="middle" x="527.0481" y="-41.3" font-family="Times,serif" font-size="14.00" fill="#ffffff">Reshape (op#1)</text>
</g>
<!-- word_embedding0&#45;&gt;Reshape (op#1) -->
<g id="edge4" class="edge">
<title>word_embedding0&#45;&gt;Reshape (op#1)</title>
<path fill="none" stroke="#000000" d="M438.7465,-45C447.2195,-45 455.7459,-45 463.9826,-45"/>
<polygon fill="#000000" stroke="#000000" points="464.235,-48.5001 474.2349,-45 464.2349,-41.5001 464.235,-48.5001"/>
</g>
<!-- word_embed_reshaped0 -->
<g id="node6" class="node">
<title>word_embed_reshaped0</title>
<polygon fill="none" stroke="#000000" points="821.1783,-60.5442 821.1783,-75.4558 760.889,-86 675.6271,-86 615.3378,-75.4558 615.3378,-60.5442 675.6271,-50 760.889,-50 821.1783,-60.5442"/>
<text text-anchor="middle" x="718.258" y="-64.3" font-family="Times,serif" font-size="14.00" fill="#000000">word_embed_reshaped</text>
</g>
<!-- Reshape (op#1)&#45;&gt;word_embed_reshaped0 -->
<g id="edge5" class="edge">
<title>Reshape (op#1)&#45;&gt;word_embed_reshaped0</title>
<path fill="none" stroke="#000000" d="M579.55,-51.3153C592.6649,-52.8928 607.1485,-54.635 621.6626,-56.3809"/>
<polygon fill="#000000" stroke="#000000" points="621.3527,-59.8687 631.6992,-57.5881 622.1888,-52.9188 621.3527,-59.8687"/>
</g>
<!-- old_shape0 -->
<g id="node7" class="node">
<title>old_shape0</title>
<polygon fill="none" stroke="#000000" points="970.6782,-14.5442 970.6782,-29.4558 940.6799,-40 898.2559,-40 868.2576,-29.4558 868.2576,-14.5442 898.2559,-4 940.6799,-4 970.6782,-14.5442"/>
<text text-anchor="middle" x="919.4679" y="-18.3" font-family="Times,serif" font-size="14.00" fill="#000000">old_shape</text>
</g>
<!-- Reshape (op#1)&#45;&gt;old_shape0 -->
<g id="edge6" class="edge">
<title>Reshape (op#1)&#45;&gt;old_shape0</title>
<path fill="none" stroke="#000000" d="M579.5644,-41.922C651.8193,-37.6871 781.624,-30.0791 858.2128,-25.5902"/>
<polygon fill="#000000" stroke="#000000" points="858.4189,-29.0842 868.197,-25.005 858.0093,-22.0962 858.4189,-29.0842"/>
</g>
<!-- ReduceSum (op#2) -->
<g id="node8" class="node">
<title>ReduceSum (op#2)</title>
<polygon fill="#0f9d58" stroke="#0f9d58" points="981.9679,-162 856.9679,-162 856.9679,-126 981.9679,-126 981.9679,-162"/>
<text text-anchor="middle" x="919.4679" y="-140.3" font-family="Times,serif" font-size="14.00" fill="#ffffff">ReduceSum (op#2)</text>
</g>
<!-- word_embed_reshaped0&#45;&gt;ReduceSum (op#2) -->
<g id="edge7" class="edge">
<title>word_embed_reshaped0&#45;&gt;ReduceSum (op#2)</title>
<path fill="none" stroke="#000000" d="M764.4196,-85.4359C793.5452,-96.4371 831.3825,-110.7288 862.3874,-122.4398"/>
<polygon fill="#000000" stroke="#000000" points="861.1814,-125.7256 871.773,-125.9849 863.6548,-119.1771 861.1814,-125.7256"/>
</g>
<!-- ReduceSumGradient (op#10) -->
<g id="node32" class="node">
<title>ReduceSumGradient (op#10)</title>
<polygon fill="#0f9d58" stroke="#0f9d58" points="4210.047,-121 4029.047,-121 4029.047,-85 4210.047,-85 4210.047,-121"/>
<text text-anchor="middle" x="4119.547" y="-99.3" font-family="Times,serif" font-size="14.00" fill="#ffffff">ReduceSumGradient (op#10)</text>
</g>
<!-- word_embed_reshaped0&#45;&gt;ReduceSumGradient (op#10) -->
<g id="edge38" class="edge">
<title>word_embed_reshaped0&#45;&gt;ReduceSumGradient (op#10)</title>
<path fill="none" stroke="#000000" d="M821.2993,-68C896.9436,-68 1002.1846,-68 1094.6486,-68 1094.6486,-68 1094.6486,-68 3628.9757,-68 3791.0054,-68 3831.6583,-72.6021 3993.047,-87 4001.3672,-87.7423 4009.9829,-88.6133 4018.6265,-89.5591"/>
<polygon fill="#000000" stroke="#000000" points="4018.4412,-93.0603 4028.7699,-90.7005 4019.224,-86.1042 4018.4412,-93.0603"/>
</g>
<!-- Reshape (op#11) -->
<g id="node34" class="node">
<title>Reshape (op#11)</title>
<polygon fill="#0f9d58" stroke="#0f9d58" points="4644.4904,-67 4532.4904,-67 4532.4904,-31 4644.4904,-31 4644.4904,-67"/>
<text text-anchor="middle" x="4588.4904" y="-45.3" font-family="Times,serif" font-size="14.00" fill="#ffffff">Reshape (op#11)</text>
</g>
<!-- old_shape0&#45;&gt;Reshape (op#11) -->
<g id="edge42" class="edge">
<title>old_shape0&#45;&gt;Reshape (op#11)</title>
<path fill="none" stroke="#000000" d="M970.7852,-22.9785C1037.41,-24.1627 1157.3002,-26 1259.8293,-26 1259.8293,-26 1259.8293,-26 4119.547,-26 4263.1778,-26 4431.2575,-36.8969 4522.0796,-43.6897"/>
<polygon fill="#000000" stroke="#000000" points="4521.9951,-47.1932 4532.2302,-44.4559 4522.5221,-40.2131 4521.9951,-47.1932"/>
</g>
<!-- embedding_sum0 -->
<g id="node9" class="node">
<title>embedding_sum0</title>
<polygon fill="none" stroke="#000000" points="1171.5104,-167.5442 1171.5104,-182.4558 1126.4858,-193 1062.8114,-193 1017.7868,-182.4558 1017.7868,-167.5442 1062.8114,-157 1126.4858,-157 1171.5104,-167.5442"/>
<text text-anchor="middle" x="1094.6486" y="-171.3" font-family="Times,serif" font-size="14.00" fill="#000000">embedding_sum</text>
</g>
<!-- ReduceSum (op#2)&#45;&gt;embedding_sum0 -->
<g id="edge8" class="edge">
<title>ReduceSum (op#2)&#45;&gt;embedding_sum0</title>
<path fill="none" stroke="#000000" d="M982.2174,-155.1042C995.2825,-157.4162 1009.1514,-159.8704 1022.5237,-162.2368"/>
<polygon fill="#000000" stroke="#000000" points="1022.1743,-165.7292 1032.6313,-164.0254 1023.3942,-158.8363 1022.1743,-165.7292"/>
</g>
<!-- Reshape (op#3) -->
<g id="node10" class="node">
<title>Reshape (op#3)</title>
<polygon fill="#0f9d58" stroke="#0f9d58" points="1312.3293,-193 1207.3293,-193 1207.3293,-157 1312.3293,-157 1312.3293,-193"/>
<text text-anchor="middle" x="1259.8293" y="-171.3" font-family="Times,serif" font-size="14.00" fill="#ffffff">Reshape (op#3)</text>
</g>
<!-- embedding_sum0&#45;&gt;Reshape (op#3) -->
<g id="edge9" class="edge">
<title>embedding_sum0&#45;&gt;Reshape (op#3)</title>
<path fill="none" stroke="#000000" d="M1171.4361,-175C1180.0611,-175 1188.771,-175 1197.187,-175"/>
<polygon fill="#000000" stroke="#000000" points="1197.2814,-178.5001 1207.2814,-175 1197.2813,-171.5001 1197.2814,-178.5001"/>
</g>
<!-- embedding_sum0&#45;&gt;ReduceSumGradient (op#10) -->
<g id="edge39" class="edge">
<title>embedding_sum0&#45;&gt;ReduceSumGradient (op#10)</title>
<path fill="none" stroke="#000000" d="M1100.1916,-193.0898C1126.1152,-273.6719 1243.3611,-596 1460.1846,-596 1460.1846,-596 1460.1846,-596 3628.9757,-596 3797.7546,-596 3871.9796,-605.5967 3993.047,-488 4045.9341,-436.6291 4097.014,-211.3136 4113.7964,-131.3072"/>
<polygon fill="#000000" stroke="#000000" points="4117.2393,-131.9414 4115.8465,-121.4385 4110.3856,-130.5176 4117.2393,-131.9414"/>
</g>
<!-- embedding_sum_reshape0 -->
<g id="node11" class="node">
<title>embedding_sum_reshape0</title>
<polygon fill="none" stroke="#000000" points="1571.8954,-247.5442 1571.8954,-262.4558 1506.4567,-273 1413.9125,-273 1348.4738,-262.4558 1348.4738,-247.5442 1413.9125,-237 1506.4567,-237 1571.8954,-247.5442"/>
<text text-anchor="middle" x="1460.1846" y="-251.3" font-family="Times,serif" font-size="14.00" fill="#000000">embedding_sum_reshape</text>
</g>
<!-- Reshape (op#3)&#45;&gt;embedding_sum_reshape0 -->
<g id="edge10" class="edge">
<title>Reshape (op#3)&#45;&gt;embedding_sum_reshape0</title>
<path fill="none" stroke="#000000" d="M1291.1095,-193.059C1307.7513,-202.2016 1328.7677,-213.0227 1348.3293,-221 1361.8433,-226.5111 1376.5905,-231.6086 1390.8119,-236.0902"/>
<polygon fill="#000000" stroke="#000000" points="1389.9646,-239.4915 1400.5519,-239.092 1392.0262,-232.802 1389.9646,-239.4915"/>
</g>
<!-- sum_old_reshape0 -->
<g id="node12" class="node">
<title>sum_old_reshape0</title>
<polygon fill="none" stroke="#000000" points="1768.6348,-106.5442 1768.6348,-121.4558 1721.5395,-132 1654.9366,-132 1607.8413,-121.4558 1607.8413,-106.5442 1654.9366,-96 1721.5395,-96 1768.6348,-106.5442"/>
<text text-anchor="middle" x="1688.2381" y="-110.3" font-family="Times,serif" font-size="14.00" fill="#000000">sum_old_reshape</text>
</g>
<!-- Reshape (op#3)&#45;&gt;sum_old_reshape0 -->
<g id="edge11" class="edge">
<title>Reshape (op#3)&#45;&gt;sum_old_reshape0</title>
<path fill="none" stroke="#000000" d="M1312.3606,-167.5202C1386.4016,-156.9777 1522.0555,-137.6623 1608.5516,-125.3463"/>
<polygon fill="#000000" stroke="#000000" points="1609.1809,-128.7921 1618.5877,-123.9173 1608.1941,-121.862 1609.1809,-128.7921"/>
</g>
<!-- FC (op#4) -->
<g id="node13" class="node">
<title>FC (op#4)</title>
<polygon fill="#0f9d58" stroke="#0f9d58" points="1725.2381,-273 1651.2381,-273 1651.2381,-237 1725.2381,-237 1725.2381,-273"/>
<text text-anchor="middle" x="1688.2381" y="-251.3" font-family="Times,serif" font-size="14.00" fill="#ffffff">FC (op#4)</text>
</g>
<!-- embedding_sum_reshape0&#45;&gt;FC (op#4) -->
<g id="edge12" class="edge">
<title>embedding_sum_reshape0&#45;&gt;FC (op#4)</title>
<path fill="none" stroke="#000000" d="M1572.207,-255C1596.4756,-255 1620.8652,-255 1640.9769,-255"/>
<polygon fill="#000000" stroke="#000000" points="1641.0809,-258.5001 1651.0808,-255 1641.0808,-251.5001 1641.0809,-258.5001"/>
</g>
<!-- FCGradient (op#8) -->
<g id="node25" class="node">
<title>FCGradient (op#8)</title>
<polygon fill="#0f9d58" stroke="#0f9d58" points="3207.2416,-380 3084.2416,-380 3084.2416,-344 3207.2416,-344 3207.2416,-380"/>
<text text-anchor="middle" x="3145.7416" y="-358.3" font-family="Times,serif" font-size="14.00" fill="#ffffff">FCGradient (op#8)</text>
</g>
<!-- embedding_sum_reshape0&#45;&gt;FCGradient (op#8) -->
<g id="edge27" class="edge">
<title>embedding_sum_reshape0&#45;&gt;FCGradient (op#8)</title>
<path fill="none" stroke="#000000" d="M1493.4714,-273.0735C1557.9895,-306.3634 1705.4133,-374 1838.2038,-374 1838.2038,-374 1838.2038,-374 2724.7755,-374 2847.4267,-374 2990.0973,-368.8472 3073.8842,-365.2947"/>
<polygon fill="#000000" stroke="#000000" points="3074.2141,-368.7839 3084.0551,-364.8591 3073.9145,-361.7903 3074.2141,-368.7839"/>
</g>
<!-- Reshape (op#9) -->
<g id="node29" class="node">
<title>Reshape (op#9)</title>
<polygon fill="#0f9d58" stroke="#0f9d58" points="3681.4757,-159 3576.4757,-159 3576.4757,-123 3681.4757,-123 3681.4757,-159"/>
<text text-anchor="middle" x="3628.9757" y="-137.3" font-family="Times,serif" font-size="14.00" fill="#ffffff">Reshape (op#9)</text>
</g>
<!-- sum_old_reshape0&#45;&gt;Reshape (op#9) -->
<g id="edge34" class="edge">
<title>sum_old_reshape0&#45;&gt;Reshape (op#9)</title>
<path fill="none" stroke="#000000" d="M1768.5684,-114C1828.8154,-114 1913.3125,-114 1987.4715,-114 1987.4715,-114 1987.4715,-114 3145.7416,-114 3296.9897,-114 3474.452,-127.3487 3566.4877,-135.2743"/>
<polygon fill="#000000" stroke="#000000" points="3566.2068,-138.763 3576.4722,-136.1418 3566.8127,-131.7892 3566.2068,-138.763"/>
</g>
<!-- logits0 -->
<g id="node16" class="node">
<title>logits0</title>
<polygon fill="none" stroke="#000000" points="1871.7407,-247.5442 1871.7407,-262.4558 1852.0953,-273 1824.3124,-273 1804.667,-262.4558 1804.667,-247.5442 1824.3124,-237 1852.0953,-237 1871.7407,-247.5442"/>
<text text-anchor="middle" x="1838.2038" y="-251.3" font-family="Times,serif" font-size="14.00" fill="#000000">logits</text>
</g>
<!-- FC (op#4)&#45;&gt;logits0 -->
<g id="edge15" class="edge">
<title>FC (op#4)&#45;&gt;logits0</title>
<path fill="none" stroke="#000000" d="M1725.3083,-255C1746.2741,-255 1772.6065,-255 1794.5652,-255"/>
<polygon fill="#000000" stroke="#000000" points="1794.6303,-258.5001 1804.6303,-255 1794.6303,-251.5001 1794.6303,-258.5001"/>
</g>
<!-- logits_w0 -->
<g id="node14" class="node">
<title>logits_w0</title>
<polygon fill="none" stroke="#000000" points="1506.1398,-404.5442 1506.1398,-419.4558 1479.2198,-430 1441.1493,-430 1414.2294,-419.4558 1414.2294,-404.5442 1441.1493,-394 1479.2198,-394 1506.1398,-404.5442"/>
<text text-anchor="middle" x="1460.1846" y="-408.3" font-family="Times,serif" font-size="14.00" fill="#000000">logits_w</text>
</g>
<!-- logits_w0&#45;&gt;FC (op#4) -->
<g id="edge13" class="edge">
<title>logits_w0&#45;&gt;FC (op#4)</title>
<path fill="none" stroke="#000000" d="M1484.1593,-395.495C1524.6388,-367.6275 1606.6888,-311.1414 1653.4827,-278.9268"/>
<polygon fill="#000000" stroke="#000000" points="1655.5397,-281.76 1661.7918,-273.2065 1651.5703,-275.9942 1655.5397,-281.76"/>
</g>
<!-- logits_w0&#45;&gt;FCGradient (op#8) -->
<g id="edge28" class="edge">
<title>logits_w0&#45;&gt;FCGradient (op#8)</title>
<path fill="none" stroke="#000000" d="M1506.1549,-412C1577.3144,-412 1718.4321,-412 1838.2038,-412 1838.2038,-412 1838.2038,-412 2724.7755,-412 2864.9446,-412 2900.8142,-410.0284 3039.2416,-388 3050.5809,-386.1955 3062.4903,-383.7977 3074.0712,-381.1862"/>
<polygon fill="#000000" stroke="#000000" points="3075.1932,-384.5189 3084.1413,-378.846 3073.6086,-377.7006 3075.1932,-384.5189"/>
</g>
<!-- WeightedSum (op#14) -->
<g id="node43" class="node">
<title>WeightedSum (op#14)</title>
<polygon fill="#0f9d58" stroke="#0f9d58" points="3700.9757,-479 3556.9757,-479 3556.9757,-443 3700.9757,-443 3700.9757,-479"/>
<text text-anchor="middle" x="3628.9757" y="-457.3" font-family="Times,serif" font-size="14.00" fill="#ffffff">WeightedSum (op#14)</text>
</g>
<!-- logits_w0&#45;&gt;WeightedSum (op#14) -->
<g id="edge50" class="edge">
<title>logits_w0&#45;&gt;WeightedSum (op#14)</title>
<path fill="none" stroke="#000000" d="M1484.1471,-428.4643C1542.1291,-466.647 1695.7388,-558 1838.2038,-558 1838.2038,-558 1838.2038,-558 3145.7416,-558 3313.6038,-558 3360.0688,-562.8192 3520.9757,-515 3545.3718,-507.7499 3570.9184,-495.2314 3591.0375,-484.0722"/>
<polygon fill="#000000" stroke="#000000" points="3592.9007,-487.0393 3599.8759,-479.0644 3589.45,-480.949 3592.9007,-487.0393"/>
</g>
<!-- logits_b0 -->
<g id="node15" class="node">
<title>logits_b0</title>
<polygon fill="none" stroke="#000000" points="1503.918,-186.5442 1503.918,-201.4558 1478.2996,-212 1442.0696,-212 1416.4512,-201.4558 1416.4512,-186.5442 1442.0696,-176 1478.2996,-176 1503.918,-186.5442"/>
<text text-anchor="middle" x="1460.1846" y="-190.3" font-family="Times,serif" font-size="14.00" fill="#000000">logits_b</text>
</g>
<!-- logits_b0&#45;&gt;FC (op#4) -->
<g id="edge14" class="edge">
<title>logits_b0&#45;&gt;FC (op#4)</title>
<path fill="none" stroke="#000000" d="M1497.843,-204.0729C1537.0787,-214.5677 1598.6404,-231.0343 1641.0846,-242.3873"/>
<polygon fill="#000000" stroke="#000000" points="1640.3379,-245.8106 1650.9028,-245.0135 1642.1468,-239.0483 1640.3379,-245.8106"/>
</g>
<!-- WeightedSum (op#15) -->
<g id="node46" class="node">
<title>WeightedSum (op#15)</title>
<polygon fill="#0f9d58" stroke="#0f9d58" points="3700.9757,-371 3556.9757,-371 3556.9757,-335 3700.9757,-335 3700.9757,-371"/>
<text text-anchor="middle" x="3628.9757" y="-349.3" font-family="Times,serif" font-size="14.00" fill="#ffffff">WeightedSum (op#15)</text>
</g>
<!-- logits_b0&#45;&gt;WeightedSum (op#15) -->
<g id="edge55" class="edge">
<title>logits_b0&#45;&gt;WeightedSum (op#15)</title>
<path fill="none" stroke="#000000" d="M1504.1581,-189.4253C1612.7264,-178.5398 1902.2628,-152 2144.4775,-152 2144.4775,-152 2144.4775,-152 3145.7416,-152 3313.655,-152 3377.1698,-109.3124 3520.9757,-196 3570.8305,-226.0529 3603.1737,-288.964 3618.5251,-325.3665"/>
<polygon fill="#000000" stroke="#000000" points="3615.3882,-326.9433 3622.4049,-334.8816 3621.8701,-324.3002 3615.3882,-326.9433"/>
</g>
<!-- SoftmaxWithLoss (op#5) -->
<g id="node17" class="node">
<title>SoftmaxWithLoss (op#5)</title>
<polygon fill="#0f9d58" stroke="#0f9d58" points="2066.9715,-289 1907.9715,-289 1907.9715,-253 2066.9715,-253 2066.9715,-289"/>
<text text-anchor="middle" x="1987.4715" y="-267.3" font-family="Times,serif" font-size="14.00" fill="#ffffff">SoftmaxWithLoss (op#5)</text>
</g>
<!-- logits0&#45;&gt;SoftmaxWithLoss (op#5) -->
<g id="edge16" class="edge">
<title>logits0&#45;&gt;SoftmaxWithLoss (op#5)</title>
<path fill="none" stroke="#000000" d="M1872.075,-258.6306C1879.971,-259.477 1888.7451,-260.4175 1897.8285,-261.3912"/>
<polygon fill="#000000" stroke="#000000" points="1897.4635,-264.872 1907.7796,-262.4578 1898.2096,-257.9119 1897.4635,-264.872"/>
</g>
<!-- SoftmaxWithLossGradient (op#7) -->
<g id="node23" class="node">
<title>SoftmaxWithLossGradient (op#7)</title>
<polygon fill="#0f9d58" stroke="#0f9d58" points="2828.7755,-308 2620.7755,-308 2620.7755,-272 2828.7755,-272 2828.7755,-308"/>
<text text-anchor="middle" x="2724.7755" y="-286.3" font-family="Times,serif" font-size="14.00" fill="#ffffff">SoftmaxWithLossGradient (op#7)</text>
</g>
<!-- logits0&#45;&gt;SoftmaxWithLossGradient (op#7) -->
<g id="edge22" class="edge">
<title>logits0&#45;&gt;SoftmaxWithLossGradient (op#7)</title>
<path fill="none" stroke="#000000" d="M1866.9102,-244.7006C1920.6415,-226.3723 2040.3843,-190 2144.4775,-190 2144.4775,-190 2144.4775,-190 2285.4836,-190 2420.202,-190 2454.4929,-203.7142 2584.7755,-238 2614.8117,-245.9045 2647.3921,-257.7972 2673.5592,-268.215"/>
<polygon fill="#000000" stroke="#000000" points="2672.3095,-271.4848 2682.8929,-271.9763 2674.9259,-264.9922 2672.3095,-271.4848"/>
</g>
<!-- softmax0 -->
<g id="node19" class="node">
<title>softmax0</title>
<polygon fill="none" stroke="#000000" points="2329.217,-228.5442 2329.217,-243.4558 2303.5986,-254 2267.3686,-254 2241.7502,-243.4558 2241.7502,-228.5442 2267.3686,-218 2303.5986,-218 2329.217,-228.5442"/>
<text text-anchor="middle" x="2285.4836" y="-232.3" font-family="Times,serif" font-size="14.00" fill="#000000">softmax</text>
</g>
<!-- SoftmaxWithLoss (op#5)&#45;&gt;softmax0 -->
<g id="edge18" class="edge">
<title>SoftmaxWithLoss (op#5)&#45;&gt;softmax0</title>
<path fill="none" stroke="#000000" d="M2067.3333,-261.6206C2119.4272,-255.5025 2186.0089,-247.6828 2231.8368,-242.3005"/>
<polygon fill="#000000" stroke="#000000" points="2232.3399,-245.7656 2241.8634,-241.123 2231.5234,-238.8134 2232.3399,-245.7656"/>
</g>
<!-- avgloss0 -->
<g id="node20" class="node">
<title>avgloss0</title>
<polygon fill="none" stroke="#000000" points="2185.9897,-278.5442 2185.9897,-293.4558 2161.6724,-304 2127.2827,-304 2102.9654,-293.4558 2102.9654,-278.5442 2127.2827,-268 2161.6724,-268 2185.9897,-278.5442"/>
<text text-anchor="middle" x="2144.4775" y="-282.3" font-family="Times,serif" font-size="14.00" fill="#000000">avgloss</text>
</g>
<!-- SoftmaxWithLoss (op#5)&#45;&gt;avgloss0 -->
<g id="edge19" class="edge">
<title>SoftmaxWithLoss (op#5)&#45;&gt;avgloss0</title>
<path fill="none" stroke="#000000" d="M2067.3544,-278.6318C2075.9833,-279.4562 2084.5899,-280.2785 2092.7572,-281.0588"/>
<polygon fill="#000000" stroke="#000000" points="2092.5483,-284.5547 2102.8359,-282.0217 2093.2141,-277.5864 2092.5483,-284.5547"/>
</g>
<!-- label0 -->
<g id="node18" class="node">
<title>label0</title>
<polygon fill="none" stroke="#000000" points="1869.1112,-316.5442 1869.1112,-331.4558 1851.0061,-342 1825.4016,-342 1807.2964,-331.4558 1807.2964,-316.5442 1825.4016,-306 1851.0061,-306 1869.1112,-316.5442"/>
<text text-anchor="middle" x="1838.2038" y="-320.3" font-family="Times,serif" font-size="14.00" fill="#000000">label</text>
</g>
<!-- label0&#45;&gt;SoftmaxWithLoss (op#5) -->
<g id="edge17" class="edge">
<title>label0&#45;&gt;SoftmaxWithLoss (op#5)</title>
<path fill="none" stroke="#000000" d="M1865.5818,-314.279C1882.8066,-308.163 1905.7363,-300.0215 1927.0579,-292.4509"/>
<polygon fill="#000000" stroke="#000000" points="1928.4625,-295.6663 1936.715,-289.022 1926.1202,-289.0698 1928.4625,-295.6663"/>
</g>
<!-- label0&#45;&gt;SoftmaxWithLossGradient (op#7) -->
<g id="edge23" class="edge">
<title>label0&#45;&gt;SoftmaxWithLossGradient (op#7)</title>
<path fill="none" stroke="#000000" d="M1869.4922,-326.0356C1924.8965,-329.4593 2043.9044,-336 2144.4775,-336 2144.4775,-336 2144.4775,-336 2285.4836,-336 2418.77,-336 2452.5618,-333.8764 2584.7755,-317 2599.6806,-315.0974 2615.3889,-312.579 2630.6812,-309.8438"/>
<polygon fill="#000000" stroke="#000000" points="2631.4506,-313.2612 2640.6578,-308.0194 2630.1913,-306.3754 2631.4506,-313.2612"/>
</g>
<!-- softmax0&#45;&gt;SoftmaxWithLossGradient (op#7) -->
<g id="edge24" class="edge">
<title>softmax0&#45;&gt;SoftmaxWithLossGradient (op#7)</title>
<path fill="none" stroke="#000000" d="M2329.2599,-238.5656C2387.7077,-242.3067 2494.3719,-250.2377 2584.7755,-263 2599.0145,-265.0101 2614.0005,-267.4984 2628.6613,-270.1442"/>
<polygon fill="#000000" stroke="#000000" points="2628.2781,-273.6323 2638.746,-271.9971 2629.5432,-266.7475 2628.2781,-273.6323"/>
</g>
<!-- ConstantFill (op#6) -->
<g id="node21" class="node">
<title>ConstantFill (op#6)</title>
<polygon fill="#0f9d58" stroke="#0f9d58" points="2348.9836,-308 2221.9836,-308 2221.9836,-272 2348.9836,-272 2348.9836,-308"/>
<text text-anchor="middle" x="2285.4836" y="-286.3" font-family="Times,serif" font-size="14.00" fill="#ffffff">ConstantFill (op#6)</text>
</g>
<!-- avgloss0&#45;&gt;ConstantFill (op#6) -->
<g id="edge20" class="edge">
<title>avgloss0&#45;&gt;ConstantFill (op#6)</title>
<path fill="none" stroke="#000000" d="M2186.0214,-287.1785C2194.079,-287.4071 2202.7475,-287.653 2211.4878,-287.9009"/>
<polygon fill="#000000" stroke="#000000" points="2211.6535,-291.4069 2221.7488,-288.192 2211.8521,-284.4097 2211.6535,-291.4069"/>
</g>
<!-- avgloss_autogen_grad0 -->
<g id="node22" class="node">
<title>avgloss_autogen_grad0</title>
<polygon fill="none" stroke="#000000" points="2584.6715,-282.5442 2584.6715,-297.4558 2526.2147,-308 2443.5443,-308 2385.0876,-297.4558 2385.0876,-282.5442 2443.5443,-272 2526.2147,-272 2584.6715,-282.5442"/>
<text text-anchor="middle" x="2484.8795" y="-286.3" font-family="Times,serif" font-size="14.00" fill="#000000">avgloss_autogen_grad</text>
</g>
<!-- ConstantFill (op#6)&#45;&gt;avgloss_autogen_grad0 -->
<g id="edge21" class="edge">
<title>ConstantFill (op#6)&#45;&gt;avgloss_autogen_grad0</title>
<path fill="none" stroke="#000000" d="M2349.1219,-290C2357.3138,-290 2365.8811,-290 2374.5569,-290"/>
<polygon fill="#000000" stroke="#000000" points="2374.7754,-293.5001 2384.7754,-290 2374.7754,-286.5001 2374.7754,-293.5001"/>
</g>
<!-- avgloss_autogen_grad0&#45;&gt;SoftmaxWithLossGradient (op#7) -->
<g id="edge25" class="edge">
<title>avgloss_autogen_grad0&#45;&gt;SoftmaxWithLossGradient (op#7)</title>
<path fill="none" stroke="#000000" d="M2584.8799,-290C2593.3812,-290 2602.02,-290 2610.619,-290"/>
<polygon fill="#000000" stroke="#000000" points="2610.6847,-293.5001 2620.6847,-290 2610.6846,-286.5001 2610.6847,-293.5001"/>
</g>
<!-- logits_grad0 -->
<g id="node24" class="node">
<title>logits_grad0</title>
<polygon fill="none" stroke="#000000" points="3007.6605,-301.5442 3007.6605,-316.4558 2975.0603,-327 2928.9568,-327 2896.3566,-316.4558 2896.3566,-301.5442 2928.9568,-291 2975.0603,-291 3007.6605,-301.5442"/>
<text text-anchor="middle" x="2952.0085" y="-305.3" font-family="Times,serif" font-size="14.00" fill="#000000">logits_grad</text>
</g>
<!-- SoftmaxWithLossGradient (op#7)&#45;&gt;logits_grad0 -->
<g id="edge26" class="edge">
<title>SoftmaxWithLossGradient (op#7)&#45;&gt;logits_grad0</title>
<path fill="none" stroke="#000000" d="M2829.0812,-298.7215C2848.5804,-300.3519 2868.4478,-302.0131 2886.3653,-303.5113"/>
<polygon fill="#000000" stroke="#000000" points="2886.1301,-307.0037 2896.387,-304.3492 2886.7134,-300.0281 2886.1301,-307.0037"/>
</g>
<!-- logits_grad0&#45;&gt;FCGradient (op#8) -->
<g id="edge29" class="edge">
<title>logits_grad0&#45;&gt;FCGradient (op#8)</title>
<path fill="none" stroke="#000000" d="M2995.0042,-320.7624C3018.3356,-327.1452 3047.7808,-335.2006 3074.4426,-342.4946"/>
<polygon fill="#000000" stroke="#000000" points="3073.5538,-345.88 3084.123,-345.1428 3075.401,-339.1281 3073.5538,-345.88"/>
</g>
<!-- logits_w_grad0 -->
<g id="node26" class="node">
<title>logits_w_grad0</title>
<polygon fill="none" stroke="#000000" points="3455.0871,-426.5442 3455.0871,-441.4558 3414.9734,-452 3358.244,-452 3318.1303,-441.4558 3318.1303,-426.5442 3358.244,-416 3414.9734,-416 3455.0871,-426.5442"/>
<text text-anchor="middle" x="3386.6087" y="-430.3" font-family="Times,serif" font-size="14.00" fill="#000000">logits_w_grad</text>
</g>
<!-- FCGradient (op#8)&#45;&gt;logits_w_grad0 -->
<g id="edge30" class="edge">
<title>FCGradient (op#8)&#45;&gt;logits_w_grad0</title>
<path fill="none" stroke="#000000" d="M3183.4979,-380.151C3203.5558,-389.2274 3228.8401,-399.7857 3252.2416,-407 3272.5636,-413.265 3295.0734,-418.4464 3315.7663,-422.5372"/>
<polygon fill="#000000" stroke="#000000" points="3315.2803,-426.0078 3325.7611,-424.4578 3316.6013,-419.1336 3315.2803,-426.0078"/>
</g>
<!-- logits_b_grad0 -->
<g id="node27" class="node">
<title>logits_b_grad0</title>
<polygon fill="none" stroke="#000000" points="3451.9584,-318.5442 3451.9584,-333.4558 3413.6774,-344 3359.5399,-344 3321.259,-333.4558 3321.259,-318.5442 3359.5399,-308 3413.6774,-308 3451.9584,-318.5442"/>
<text text-anchor="middle" x="3386.6087" y="-322.3" font-family="Times,serif" font-size="14.00" fill="#000000">logits_b_grad</text>
</g>
<!-- FCGradient (op#8)&#45;&gt;logits_b_grad0 -->
<g id="edge31" class="edge">
<title>FCGradient (op#8)&#45;&gt;logits_b_grad0</title>
<path fill="none" stroke="#000000" d="M3207.4581,-352.7759C3240.6961,-347.8081 3281.8342,-341.6596 3316.3037,-336.5078"/>
<polygon fill="#000000" stroke="#000000" points="3316.9297,-339.9532 3326.3024,-335.0134 3315.8949,-333.0301 3316.9297,-339.9532"/>
</g>
<!-- embedding_sum_reshape_grad0 -->
<g id="node28" class="node">
<title>embedding_sum_reshape_grad0</title>
<polygon fill="none" stroke="#000000" points="3520.8429,-215.5442 3520.8429,-230.4558 3442.2103,-241 3331.007,-241 3252.3744,-230.4558 3252.3744,-215.5442 3331.007,-205 3442.2103,-205 3520.8429,-215.5442"/>
<text text-anchor="middle" x="3386.6087" y="-219.3" font-family="Times,serif" font-size="14.00" fill="#000000">embedding_sum_reshape_grad</text>
</g>
<!-- FCGradient (op#8)&#45;&gt;embedding_sum_reshape_grad0 -->
<g id="edge32" class="edge">
<title>FCGradient (op#8)&#45;&gt;embedding_sum_reshape_grad0</title>
<path fill="none" stroke="#000000" d="M3175.9477,-343.9204C3197.218,-331.2411 3226.3946,-313.9527 3252.2416,-299 3283.2653,-281.0525 3318.5438,-261.1164 3345.1657,-246.167"/>
<polygon fill="#000000" stroke="#000000" points="3347.1911,-249.0439 3354.1999,-241.0987 3343.7662,-242.939 3347.1911,-249.0439"/>
</g>
<!-- logits_w_grad0&#45;&gt;WeightedSum (op#14) -->
<g id="edge52" class="edge">
<title>logits_w_grad0&#45;&gt;WeightedSum (op#14)</title>
<path fill="none" stroke="#000000" d="M3454.7664,-441.5929C3483.3212,-444.7739 3516.7688,-448.5 3546.6806,-451.8322"/>
<polygon fill="#000000" stroke="#000000" points="3546.3509,-455.317 3556.6769,-452.9458 3547.1259,-448.3601 3546.3509,-455.317"/>
</g>
<!-- logits_b_grad0&#45;&gt;WeightedSum (op#15) -->
<g id="edge57" class="edge">
<title>logits_b_grad0&#45;&gt;WeightedSum (op#15)</title>
<path fill="none" stroke="#000000" d="M3452.1967,-333.3066C3481.2919,-336.5478 3515.8459,-340.3972 3546.6527,-343.8291"/>
<polygon fill="#000000" stroke="#000000" points="3546.6172,-347.3467 3556.9433,-344.9755 3547.3923,-340.3898 3546.6172,-347.3467"/>
</g>
<!-- embedding_sum_reshape_grad0&#45;&gt;Reshape (op#9) -->
<g id="edge33" class="edge">
<title>embedding_sum_reshape_grad0&#45;&gt;Reshape (op#9)</title>
<path fill="none" stroke="#000000" d="M3440.0972,-204.9032C3477.4943,-192.2507 3527.5554,-175.3135 3566.7431,-162.0552"/>
<polygon fill="#000000" stroke="#000000" points="3568.1066,-165.2888 3576.4574,-158.7685 3565.8632,-158.658 3568.1066,-165.2888"/>
</g>
<!-- embedding_sum_grad0 -->
<g id="node30" class="node">
<title>embedding_sum_grad0</title>
<polygon fill="none" stroke="#000000" points="3964.3966,-106.5442 3964.3966,-121.4558 3906.1781,-132 3823.8447,-132 3765.6261,-121.4558 3765.6261,-106.5442 3823.8447,-96 3906.1781,-96 3964.3966,-106.5442"/>
<text text-anchor="middle" x="3865.0114" y="-110.3" font-family="Times,serif" font-size="14.00" fill="#000000">embedding_sum_grad</text>
</g>
<!-- Reshape (op#9)&#45;&gt;embedding_sum_grad0 -->
<g id="edge35" class="edge">
<title>Reshape (op#9)&#45;&gt;embedding_sum_grad0</title>
<path fill="none" stroke="#000000" d="M3681.653,-134.9743C3707.2877,-132.0419 3738.9282,-128.4226 3768.6674,-125.0207"/>
<polygon fill="#000000" stroke="#000000" points="3769.1311,-128.4906 3778.6685,-123.8767 3768.3355,-121.536 3769.1311,-128.4906"/>
</g>
<!-- _embedding_sum_grad_dims0 -->
<g id="node31" class="node">
<title>_embedding_sum_grad_dims0</title>
<polygon fill="none" stroke="#000000" points="3993.0827,-160.5442 3993.0827,-175.4558 3918.0602,-186 3811.9625,-186 3736.9401,-175.4558 3736.9401,-160.5442 3811.9625,-150 3918.0602,-150 3993.0827,-160.5442"/>
<text text-anchor="middle" x="3865.0114" y="-164.3" font-family="Times,serif" font-size="14.00" fill="#000000">_embedding_sum_grad_dims</text>
</g>
<!-- Reshape (op#9)&#45;&gt;_embedding_sum_grad_dims0 -->
<g id="edge36" class="edge">
<title>Reshape (op#9)&#45;&gt;_embedding_sum_grad_dims0</title>
<path fill="none" stroke="#000000" d="M3681.653,-147.0257C3703.3634,-149.5092 3729.3816,-152.4854 3754.9042,-155.4049"/>
<polygon fill="#000000" stroke="#000000" points="3754.6976,-158.904 3765.0306,-156.5633 3755.4932,-151.9494 3754.6976,-158.904"/>
</g>
<!-- embedding_sum_grad0&#45;&gt;ReduceSumGradient (op#10) -->
<g id="edge37" class="edge">
<title>embedding_sum_grad0&#45;&gt;ReduceSumGradient (op#10)</title>
<path fill="none" stroke="#000000" d="M3964.5151,-109.6999C3982.2318,-108.9342 4000.7032,-108.136 4018.4634,-107.3684"/>
<polygon fill="#000000" stroke="#000000" points="4018.9876,-110.8491 4028.8271,-106.9205 4018.6853,-103.8557 4018.9876,-110.8491"/>
</g>
<!-- word_embed_reshaped_grad0 -->
<g id="node33" class="node">
<title>word_embed_reshaped_grad0</title>
<polygon fill="none" stroke="#000000" points="4496.7124,-85.5442 4496.7124,-100.4558 4423.2292,-111 4319.3082,-111 4245.825,-100.4558 4245.825,-85.5442 4319.3082,-75 4423.2292,-75 4496.7124,-85.5442"/>
<text text-anchor="middle" x="4371.2687" y="-89.3" font-family="Times,serif" font-size="14.00" fill="#000000">word_embed_reshaped_grad</text>
</g>
<!-- ReduceSumGradient (op#10)&#45;&gt;word_embed_reshaped_grad0 -->
<g id="edge40" class="edge">
<title>ReduceSumGradient (op#10)&#45;&gt;word_embed_reshaped_grad0</title>
<path fill="none" stroke="#000000" d="M4210.0687,-99.4039C4218.4772,-99.0699 4227.1147,-98.7267 4235.8137,-98.3811"/>
<polygon fill="#000000" stroke="#000000" points="4236.1906,-101.869 4246.0438,-97.9747 4235.9127,-94.8745 4236.1906,-101.869"/>
</g>
<!-- word_embed_reshaped_grad0&#45;&gt;Reshape (op#11) -->
<g id="edge41" class="edge">
<title>word_embed_reshaped_grad0&#45;&gt;Reshape (op#11)</title>
<path fill="none" stroke="#000000" d="M4445.1131,-78.0422C4470.1924,-72.9622 4498.0363,-67.3222 4522.4652,-62.3739"/>
<polygon fill="#000000" stroke="#000000" points="4523.2457,-65.787 4532.3518,-60.3713 4521.856,-58.9263 4523.2457,-65.787"/>
</g>
<!-- word_embedding_grad0 -->
<g id="node35" class="node">
<title>word_embedding_grad0</title>
<polygon fill="none" stroke="#000000" points="4915.6672,-68.5442 4915.6672,-83.4558 4855.3779,-94 4770.116,-94 4709.8267,-83.4558 4709.8267,-68.5442 4770.116,-58 4855.3779,-58 4915.6672,-68.5442"/>
<text text-anchor="middle" x="4812.7469" y="-72.3" font-family="Times,serif" font-size="14.00" fill="#000000">word_embedding_grad</text>
</g>
<!-- Reshape (op#11)&#45;&gt;word_embedding_grad0 -->
<g id="edge43" class="edge">
<title>Reshape (op#11)&#45;&gt;word_embedding_grad0</title>
<path fill="none" stroke="#000000" d="M4644.5013,-55.7436C4666.2797,-58.3657 4691.8635,-61.4459 4716.4162,-64.402"/>
<polygon fill="#000000" stroke="#000000" points="4716.1466,-67.8947 4726.4933,-65.6152 4716.9834,-60.9449 4716.1466,-67.8947"/>
</g>
<!-- _word_embedding_grad_dims0 -->
<g id="node36" class="node">
<title>_word_embedding_grad_dims0</title>
<polygon fill="none" stroke="#000000" points="4944.7606,-14.5442 4944.7606,-29.4558 4867.4288,-40 4758.0651,-40 4680.7333,-29.4558 4680.7333,-14.5442 4758.0651,-4 4867.4288,-4 4944.7606,-14.5442"/>
<text text-anchor="middle" x="4812.7469" y="-18.3" font-family="Times,serif" font-size="14.00" fill="#000000">_word_embedding_grad_dims</text>
</g>
<!-- Reshape (op#11)&#45;&gt;_word_embedding_grad_dims0 -->
<g id="edge44" class="edge">
<title>Reshape (op#11)&#45;&gt;_word_embedding_grad_dims0</title>
<path fill="none" stroke="#000000" d="M4644.5013,-42.2564C4662.451,-40.0953 4682.9859,-37.6229 4703.3978,-35.1654"/>
<polygon fill="#000000" stroke="#000000" points="4703.8866,-38.6319 4713.3965,-33.9616 4703.0498,-31.6821 4703.8866,-38.6319"/>
</g>
<!-- AtomicIter (op#12) -->
<g id="node37" class="node">
<title>AtomicIter (op#12)</title>
<polygon fill="#0f9d58" stroke="#0f9d58" points="2787.7755,-506 2661.7755,-506 2661.7755,-470 2787.7755,-470 2787.7755,-506"/>
<text text-anchor="middle" x="2724.7755" y="-484.3" font-family="Times,serif" font-size="14.00" fill="#ffffff">AtomicIter (op#12)</text>
</g>
<!-- optimizer_iteration1 -->
<g id="node40" class="node">
<title>optimizer_iteration1</title>
<polygon fill="none" stroke="#000000" points="3039.4753,-480.5442 3039.4753,-495.4558 2988.2385,-506 2915.7786,-506 2864.5418,-495.4558 2864.5418,-480.5442 2915.7786,-470 2988.2385,-470 3039.4753,-480.5442"/>
<text text-anchor="middle" x="2952.0085" y="-484.3" font-family="Times,serif" font-size="14.00" fill="#000000">optimizer_iteration</text>
</g>
<!-- AtomicIter (op#12)&#45;&gt;optimizer_iteration1 -->
<g id="edge47" class="edge">
<title>AtomicIter (op#12)&#45;&gt;optimizer_iteration1</title>
<path fill="none" stroke="#000000" d="M2788.0725,-488C2808.571,-488 2831.8078,-488 2854.2082,-488"/>
<polygon fill="#000000" stroke="#000000" points="2854.4286,-491.5001 2864.4286,-488 2854.4285,-484.5001 2854.4286,-491.5001"/>
</g>
<!-- iteration_mutex0 -->
<g id="node38" class="node">
<title>iteration_mutex0</title>
<polygon fill="none" stroke="#000000" points="2558.6132,-450.5442 2558.6132,-465.4558 2515.421,-476 2454.338,-476 2411.1459,-465.4558 2411.1459,-450.5442 2454.338,-440 2515.421,-440 2558.6132,-450.5442"/>
<text text-anchor="middle" x="2484.8795" y="-454.3" font-family="Times,serif" font-size="14.00" fill="#000000">iteration_mutex</text>
</g>
<!-- iteration_mutex0&#45;&gt;AtomicIter (op#12) -->
<g id="edge45" class="edge">
<title>iteration_mutex0&#45;&gt;AtomicIter (op#12)</title>
<path fill="none" stroke="#000000" d="M2553.9455,-466.637C2584.4137,-470.4472 2620.2585,-474.9297 2651.2256,-478.8023"/>
<polygon fill="#000000" stroke="#000000" points="2651.1686,-482.3223 2661.5257,-480.0903 2652.0373,-475.3764 2651.1686,-482.3223"/>
</g>
<!-- optimizer_iteration0 -->
<g id="node39" class="node">
<title>optimizer_iteration0</title>
<polygon fill="none" stroke="#000000" points="2572.3463,-504.5442 2572.3463,-519.4558 2521.1095,-530 2448.6496,-530 2397.4128,-519.4558 2397.4128,-504.5442 2448.6496,-494 2521.1095,-494 2572.3463,-504.5442"/>
<text text-anchor="middle" x="2484.8795" y="-508.3" font-family="Times,serif" font-size="14.00" fill="#000000">optimizer_iteration</text>
</g>
<!-- optimizer_iteration0&#45;&gt;AtomicIter (op#12) -->
<g id="edge46" class="edge">
<title>optimizer_iteration0&#45;&gt;AtomicIter (op#12)</title>
<path fill="none" stroke="#000000" d="M2568.4467,-503.6397C2595.4256,-500.9406 2625.1168,-497.9702 2651.3097,-495.3498"/>
<polygon fill="#000000" stroke="#000000" points="2651.9391,-498.8044 2661.541,-494.3262 2651.2422,-491.8391 2651.9391,-498.8044"/>
</g>
<!-- LearningRate (op#13) -->
<g id="node41" class="node">
<title>LearningRate (op#13)</title>
<polygon fill="#0f9d58" stroke="#0f9d58" points="3216.2416,-506 3075.2416,-506 3075.2416,-470 3216.2416,-470 3216.2416,-506"/>
<text text-anchor="middle" x="3145.7416" y="-484.3" font-family="Times,serif" font-size="14.00" fill="#ffffff">LearningRate (op#13)</text>
</g>
<!-- optimizer_iteration1&#45;&gt;LearningRate (op#13) -->
<g id="edge48" class="edge">
<title>optimizer_iteration1&#45;&gt;LearningRate (op#13)</title>
<path fill="none" stroke="#000000" d="M3039.523,-488C3048.0064,-488 3056.5864,-488 3064.9994,-488"/>
<polygon fill="#000000" stroke="#000000" points="3065.161,-491.5001 3075.161,-488 3065.1609,-484.5001 3065.161,-491.5001"/>
</g>
<!-- SgdOptimizer_9_lr_cpu0 -->
<g id="node42" class="node">
<title>SgdOptimizer_9_lr_cpu0</title>
<polygon fill="none" stroke="#000000" points="3493.4704,-480.5442 3493.4704,-495.4558 3430.8723,-506 3342.3451,-506 3279.7469,-495.4558 3279.7469,-480.5442 3342.3451,-470 3430.8723,-470 3493.4704,-480.5442"/>
<text text-anchor="middle" x="3386.6087" y="-484.3" font-family="Times,serif" font-size="14.00" fill="#000000">SgdOptimizer_9_lr_cpu</text>
</g>
<!-- LearningRate (op#13)&#45;&gt;SgdOptimizer_9_lr_cpu0 -->
<g id="edge49" class="edge">
<title>LearningRate (op#13)&#45;&gt;SgdOptimizer_9_lr_cpu0</title>
<path fill="none" stroke="#000000" d="M3216.3822,-488C3233.131,-488 3251.4393,-488 3269.6418,-488"/>
<polygon fill="#000000" stroke="#000000" points="3269.7329,-491.5001 3279.7329,-488 3269.7329,-484.5001 3269.7329,-491.5001"/>
</g>
<!-- SgdOptimizer_9_lr_cpu0&#45;&gt;WeightedSum (op#14) -->
<g id="edge53" class="edge">
<title>SgdOptimizer_9_lr_cpu0&#45;&gt;WeightedSum (op#14)</title>
<path fill="none" stroke="#000000" d="M3477.8919,-477.8309C3500.4668,-475.3161 3524.5182,-472.6367 3546.6386,-470.1725"/>
<polygon fill="#000000" stroke="#000000" points="3547.1029,-473.6425 3556.6538,-469.0568 3546.3278,-466.6855 3547.1029,-473.6425"/>
</g>
<!-- SgdOptimizer_9_lr_cpu0&#45;&gt;WeightedSum (op#15) -->
<g id="edge58" class="edge">
<title>SgdOptimizer_9_lr_cpu0&#45;&gt;WeightedSum (op#15)</title>
<path fill="none" stroke="#000000" d="M3476.2669,-477.625C3491.7342,-473.7215 3507.2382,-468.3601 3520.9757,-461 3540.6312,-450.4693 3581.0757,-407.16 3606.5093,-378.6873"/>
<polygon fill="#000000" stroke="#000000" points="3609.233,-380.8912 3613.2551,-371.0895 3603.9984,-376.2437 3609.233,-380.8912"/>
</g>
<!-- logits_w1 -->
<g id="node45" class="node">
<title>logits_w1</title>
<polygon fill="none" stroke="#000000" points="3910.9665,-453.5442 3910.9665,-468.4558 3884.0466,-479 3845.9761,-479 3819.0562,-468.4558 3819.0562,-453.5442 3845.9761,-443 3884.0466,-443 3910.9665,-453.5442"/>
<text text-anchor="middle" x="3865.0114" y="-457.3" font-family="Times,serif" font-size="14.00" fill="#000000">logits_w</text>
</g>
<!-- WeightedSum (op#14)&#45;&gt;logits_w1 -->
<g id="edge54" class="edge">
<title>WeightedSum (op#14)&#45;&gt;logits_w1</title>
<path fill="none" stroke="#000000" d="M3701.0768,-461C3735.6973,-461 3776.5635,-461 3808.833,-461"/>
<polygon fill="#000000" stroke="#000000" points="3808.9893,-464.5001 3818.9893,-461 3808.9892,-457.5001 3808.9893,-464.5001"/>
</g>
<!-- ONE_0_00 -->
<g id="node44" class="node">
<title>ONE_0_00</title>
<polygon fill="none" stroke="#000000" points="3437.819,-372.5442 3437.819,-387.4558 3407.8207,-398 3365.3967,-398 3335.3984,-387.4558 3335.3984,-372.5442 3365.3967,-362 3407.8207,-362 3437.819,-372.5442"/>
<text text-anchor="middle" x="3386.6087" y="-376.3" font-family="Times,serif" font-size="14.00" fill="#000000">ONE_0_0</text>
</g>
<!-- ONE_0_00&#45;&gt;WeightedSum (op#14) -->
<g id="edge51" class="edge">
<title>ONE_0_00&#45;&gt;WeightedSum (op#14)</title>
<path fill="none" stroke="#000000" d="M3437.8593,-387.0159C3463.2809,-391.3176 3494.1977,-397.7987 3520.9757,-407 3544.5292,-415.0933 3569.4813,-427.3048 3589.4612,-438.069"/>
<polygon fill="#000000" stroke="#000000" points="3587.8164,-441.1587 3598.2684,-442.8929 3591.1791,-435.0193 3587.8164,-441.1587"/>
</g>
<!-- ONE_0_00&#45;&gt;WeightedSum (op#15) -->
<g id="edge56" class="edge">
<title>ONE_0_00&#45;&gt;WeightedSum (op#15)</title>
<path fill="none" stroke="#000000" d="M3438.0085,-374.274C3469.6347,-370.7508 3510.8803,-366.156 3546.9432,-362.1385"/>
<polygon fill="#000000" stroke="#000000" points="3547.4141,-365.6078 3556.965,-361.0221 3546.639,-358.6509 3547.4141,-365.6078"/>
</g>
<!-- logits_b1 -->
<g id="node47" class="node">
<title>logits_b1</title>
<polygon fill="none" stroke="#000000" points="3908.7448,-345.5442 3908.7448,-360.4558 3883.1263,-371 3846.8964,-371 3821.278,-360.4558 3821.278,-345.5442 3846.8964,-335 3883.1263,-335 3908.7448,-345.5442"/>
<text text-anchor="middle" x="3865.0114" y="-349.3" font-family="Times,serif" font-size="14.00" fill="#000000">logits_b</text>
</g>
<!-- WeightedSum (op#15)&#45;&gt;logits_b1 -->
<g id="edge59" class="edge">
<title>WeightedSum (op#15)&#45;&gt;logits_b1</title>
<path fill="none" stroke="#000000" d="M3701.0768,-353C3736.4313,-353 3778.2991,-353 3810.8738,-353"/>
<polygon fill="#000000" stroke="#000000" points="3811.1034,-356.5001 3821.1034,-353 3811.1033,-349.5001 3811.1034,-356.5001"/>
</g>
</g>
</svg>
